<?xml version="1.0" standalone="no"?>
<!DOCTYPE svg PUBLIC "-//W3C//DTD SVG 20010904//EN"
 "http://www.w3.org/TR/2001/REC-SVG-20010904/DTD/svg10.dtd">
<svg version="1.0" xmlns="http://www.w3.org/2000/svg"
 width="1024.000000pt" height="1024.000000pt" viewBox="0 0 1024.000000 1024.000000"
 preserveAspectRatio="xMidYMid meet">
<metadata>
Created by potrace 1.11, written by Peter Selinger 2001-2013
</metadata>
<g transform="translate(0.000000,1024.000000) scale(0.100000,-0.100000)"
fill="#000000" stroke="none">
<path d="M4869 10036 c-2 -2 -42 -6 -87 -10 -95 -7 -233 -26 -312 -41 -14 -3
-36 -7 -50 -10 -552 -104 -1072 -335 -1535 -684 -55 -41 -105 -80 -111 -86 -6
-5 -36 -30 -65 -55 -94 -78 -321 -306 -404 -406 -44 -53 -85 -101 -90 -107
-71 -82 -239 -335 -332 -502 -164 -294 -327 -723 -376 -995 -3 -14 -8 -36 -11
-50 -3 -14 -8 -38 -11 -55 -14 -82 -27 -164 -31 -200 -3 -22 -7 -51 -10 -65
-24 -150 -24 -763 0 -910 3 -14 7 -47 11 -75 31 -257 124 -577 244 -839 106
-231 275 -537 435 -787 17 -27 44 -70 60 -97 17 -26 100 -153 186 -282 139
-210 222 -333 355 -525 23 -33 73 -105 110 -160 38 -55 72 -102 75 -105 3 -3
10 -13 15 -22 6 -10 87 -126 180 -260 94 -133 197 -281 229 -328 33 -47 64
-89 68 -95 11 -13 463 -658 494 -705 24 -36 266 -382 304 -435 25 -35 166
-238 441 -635 59 -86 129 -176 155 -201 111 -103 277 -144 428 -104 121 32
207 98 291 222 25 38 82 120 126 183 44 63 97 140 117 170 20 30 40 60 45 65
11 15 279 398 418 599 84 122 587 840 596 851 7 9 53 74 235 335 25 36 58 84
74 106 96 137 207 296 256 367 31 45 60 87 65 92 4 6 35 51 69 100 33 50 94
140 136 200 151 222 428 642 428 649 0 3 18 32 40 65 22 33 40 63 40 67 0 4 6
15 14 23 7 9 25 36 38 61 14 25 47 81 73 125 120 202 275 528 344 725 67 192
115 389 137 560 2 19 6 49 9 65 20 137 28 687 12 850 -15 150 -47 346 -82 505
-27 122 -99 355 -152 489 -216 553 -545 1027 -993 1431 -41 37 -254 208 -290
233 -108 74 -259 171 -327 210 -78 45 -337 177 -347 177 -2 0 -26 10 -53 22
-26 11 -52 22 -58 24 -5 1 -44 16 -86 33 -142 55 -434 139 -549 157 -19 3 -51
9 -70 14 -19 5 -57 12 -85 15 -27 4 -59 9 -70 10 -11 2 -47 6 -80 10 -33 3
-71 9 -85 12 -28 6 -595 14 -601 9z m368 -1624 c22 -12 55 -38 72 -59 50 -60
61 -109 61 -263 0 -165 10 -224 52 -310 101 -207 347 -318 577 -259 97 25 154
62 279 184 118 114 153 136 233 142 47 4 68 1 112 -20 121 -55 174 -170 137
-301 -11 -41 -33 -69 -133 -174 -97 -101 -126 -138 -152 -196 -38 -82 -45
-114 -46 -212 -2 -137 62 -279 169 -375 42 -38 136 -95 144 -88 2 1 13 -3 24
-9 36 -19 83 -24 239 -27 174 -2 216 -11 273 -61 140 -120 109 -341 -58 -413
-42 -18 -70 -21 -202 -23 -174 -2 -245 -15 -331 -60 -59 -32 -161 -124 -179
-163 -5 -11 -18 -36 -28 -55 -34 -62 -52 -142 -52 -225 0 -156 49 -255 202
-410 112 -113 140 -161 140 -245 0 -166 -160 -281 -323 -233 -39 11 -71 36
-172 133 -170 162 -272 209 -429 197 -102 -8 -122 -13 -203 -52 -129 -64 -237
-200 -263 -333 -5 -28 -10 -116 -11 -196 -3 -163 -17 -218 -70 -274 -49 -52
-104 -76 -179 -76 -77 0 -124 19 -180 76 -57 59 -70 107 -70 268 0 168 -10
225 -55 315 -57 114 -140 190 -265 242 -93 38 -242 43 -334 9 -98 -35 -143
-66 -254 -176 -109 -107 -160 -138 -234 -144 -50 -3 -125 22 -173 58 -78 60
-110 199 -66 289 11 23 67 90 125 149 152 156 196 245 197 402 1 216 -132 407
-332 477 -54 19 -94 23 -249 28 -177 6 -187 7 -230 33 -186 108 -165 371 34
446 39 15 79 19 200 20 82 1 173 6 201 13 171 40 318 188 365 369 26 98 8 259
-39 345 -25 47 -71 102 -166 199 -100 102 -124 147 -125 229 0 95 53 181 138
223 50 25 163 26 212 1 20 -9 84 -65 144 -123 59 -57 131 -118 160 -134 235
-135 551 -48 683 188 51 91 63 153 65 327 0 83 6 164 12 182 21 61 71 119 127
147 47 24 63 27 119 23 39 -2 82 -12 107 -25z"/>
<path d="M4730 6886 c-272 -79 -394 -380 -254 -623 33 -58 101 -123 163 -156
57 -32 165 -57 214 -51 17 2 50 7 71 9 63 9 157 59 212 115 141 140 165 367
55 529 -51 75 -95 112 -177 152 -56 26 -82 32 -153 35 -52 2 -104 -2 -131 -10z"/>
<path d="M5476 5978 c-54 -15 -121 -84 -136 -139 -38 -141 58 -272 199 -273
155 0 256 154 194 295 -20 46 -69 94 -110 110 -39 15 -106 18 -147 7z"/>
</g>
</svg>
