<svg xmlns="http://www.w3.org/2000/svg" viewBox="0 0 160 160"><defs><style>.cls-1{fill:#fff;}</style></defs><title>hands</title><g id="Layer_2" data-name="Layer 2"><path class="cls-1" d="M95.15,55h-16a1,1,0,0,1-1-1V42a17,17,0,0,1,17-17h26a1,1,0,0,1,0,2h-26a15,15,0,0,0-15,15V53h14V42a1,1,0,0,1,1-1h26a1,1,0,0,1,0,2h-25V54A1,1,0,0,1,95.15,55Z"/><path class="cls-1" d="M79.15,83a1,1,0,0,1-1-1V60a1,1,0,0,1,2,0V82A1,1,0,0,1,79.15,83Z"/><path class="cls-1" d="M87.15,75a1,1,0,0,1-1-1V62a1,1,0,0,1,2,0V74A1,1,0,0,1,87.15,75Z"/><path class="cls-1" d="M95.15,98a1,1,0,0,1-1-1V60a1,1,0,0,1,2,0V97A1,1,0,0,1,95.15,98Z"/><path class="cls-1" d="M87.15,95a1,1,0,0,1-1-1V79a1,1,0,0,1,2,0V94A1,1,0,0,1,87.15,95Z"/><path class="cls-1" d="M79.15,95a1,1,0,0,1-1-1V85a1,1,0,0,1,2,0v9A1,1,0,0,1,79.15,95Z"/><path class="cls-1" d="M44.15,111h-12a1,1,0,0,1,0-2h12a1,1,0,1,1,0,2Z"/><path class="cls-1" d="M100.15,135h-68a1,1,0,0,1,0-2H99.79l26.07-21.42a2.67,2.67,0,0,0,.82-3,3.52,3.52,0,0,0-3.53-2.57,7.84,7.84,0,0,0-5.3,1.71.27.27,0,0,1-.08.07l-19,15a1,1,0,0,1-.62.22h-24c-2.77,0-8-1.25-8-6,0-3.09,0-6,3-6H82c.88-.29,6.15-2.15,6.15-6s-2.88-4-3-4h-25c-.07,0-7.6.09-12.23,5.64a15.22,15.22,0,0,0-3.78,11.2,1,1,0,1,1-2,.32c-.05-.26-1-6.52,4.21-12.8S59.81,99,60.15,99h25c1.73,0,5,1.25,5,6,0,5.69-7.41,7.87-7.72,8a.9.9,0,0,1-.28,0h-13c-.84,0-1,.64-1,4,0,4,5.94,4,6,4H97.8l18.7-14.76a9.9,9.9,0,0,1,6.65-2.24,5.53,5.53,0,0,1,5.4,3.86,4.67,4.67,0,0,1-1.42,5.27l-26.34,21.64A1,1,0,0,1,100.15,135Z"/><path class="cls-1" d="M89.15,123a1,1,0,0,1-.62-1.78l19-15a9.9,9.9,0,0,1,6.65-2.24,5.43,5.43,0,0,1,3.64,1.26,1,1,0,1,1-1.3,1.52,3.41,3.41,0,0,0-2.34-.78,7.84,7.84,0,0,0-5.3,1.71.27.27,0,0,1-.08.07l-19,15A1,1,0,0,1,89.15,123Z"/><path class="cls-1" d="M80.15,123a1,1,0,0,1-.62-1.78l19-15a9.9,9.9,0,0,1,6.65-2.24,5.43,5.43,0,0,1,3.64,1.26,1,1,0,1,1-1.3,1.52,3.41,3.41,0,0,0-2.34-.78,7.84,7.84,0,0,0-5.3,1.71.27.27,0,0,1-.08.07l-19,15A1,1,0,0,1,80.15,123Z"/></g></svg>