<svg xmlns="http://www.w3.org/2000/svg" viewBox="0 0 160 160"><defs><style>.cls-1{fill:#fff;}</style></defs><title>hands</title><g id="Layer_2" data-name="Layer 2"><path class="cls-1" d="M113.81,65.15H46.19A12.7,12.7,0,0,1,33.5,52.46V18.85a1,1,0,0,1,2,0V52.46A10.7,10.7,0,0,0,46.19,63.15h67.62A10.7,10.7,0,0,0,124.5,52.46V18.85a1,1,0,1,1,2,0V52.46A12.7,12.7,0,0,1,113.81,65.15Z"/><path class="cls-1" d="M81.5,48.11a25,25,0,0,1-25-25v-4a1,1,0,0,1,1.92,0v4a23,23,0,0,0,46.08,0v-4a1,1,0,1,1,1.92,0v4A25,25,0,0,1,81.5,48.11Z"/><path class="cls-1" d="M48.5,142.15a1,1,0,0,1-1-1v-13c0-2.43-1.75-5.92-3.15-8.73a34,34,0,0,1-1.8-4c-.71-2.14-.53-10.25-.23-20.64.1-3.2.18-6,.18-7.68,0-4.24,9.18-15.38,10.23-16.64a1,1,0,0,1,1.54,1.28C50.49,76.33,44.5,84.5,44.5,87.15c0,1.74-.08,4.52-.18,7.74-.21,7.16-.53,18,.13,20a33.11,33.11,0,0,0,1.69,3.68c1.57,3.15,3.36,6.73,3.36,9.63v13A1,1,0,0,1,48.5,142.15Z"/><path class="cls-1" d="M63.5,124.15A.94.94,0,0,1,63,124a1,1,0,0,1-.28-1.38c0-.06,3.83-5.85,3.83-12.45a18.68,18.68,0,0,0-2.8-10.4,1,1,0,0,1,0-1.22s4-5,6-7.93l.32-.48c1.93-2.88,4.13-6.14,1.71-9.37a2.81,2.81,0,0,0-2.09-1.37,3.54,3.54,0,0,0-2.31,1.37l-17,19.07a1,1,0,0,1-1.5-1.33l17-19a5.49,5.49,0,0,1,3.86-2.11,4.63,4.63,0,0,1,3.69,2.17c3.27,4.36.31,8.77-1.65,11.69l-.32.47c-1.62,2.43-4.49,6.1-5.6,7.5a21.32,21.32,0,0,1,2.77,10.94,27.21,27.21,0,0,1-4.17,13.56A1,1,0,0,1,63.5,124.15Z"/><path class="cls-1" d="M73.5,142.15a1,1,0,0,1-1-1v-10a1,1,0,0,1,.55-.89s1.88-1,4.65-4.71a15.68,15.68,0,0,0,2.8-8.4,1,1,0,0,1,2,0,17.63,17.63,0,0,1-3.2,9.6,21.83,21.83,0,0,1-4.8,5v9.44A1,1,0,0,1,73.5,142.15Z"/><path class="cls-1" d="M109.5,115.15a1,1,0,0,1-.71-.29l-6.29-6.29-6.29,6.29a1,1,0,0,1-1.42,0l-6.29-6.29-6.29,6.29a1,1,0,0,1-1.42,0L74,108.07l-5.58,5.58a1,1,0,0,1-1.42,0,1,1,0,0,1,0-1.41L73.29,106a1,1,0,0,1,1.42,0l6.79,6.79,6.29-6.29a1,1,0,0,1,1.42,0l6.29,6.29,6.29-6.29a1,1,0,0,1,1.42,0l5.29,5.29V64.15a1,1,0,1,1,2,0v50a1,1,0,0,1-.62.93A1,1,0,0,1,109.5,115.15Z"/><path class="cls-1" d="M53.5,95.15a1,1,0,0,1-1-1v-29a1,1,0,0,1,2,0v29A1,1,0,0,1,53.5,95.15Z"/></g></svg>