<svg xmlns="http://www.w3.org/2000/svg" viewBox="0 0 160 160"><defs><style>.cls-1{fill:#fff;}</style></defs><title>hands</title><g id="Layer_2" data-name="Layer 2"><path class="cls-1" d="M110.17,66.62a1,1,0,0,1-1-1v-6a1,1,0,0,1,1-1h26a1,1,0,0,1,0,2h-25v5A1,1,0,0,1,110.17,66.62Z"/><path class="cls-1" d="M94.17,71.62a1,1,0,0,1-1-1v-11a17,17,0,0,1,17-17h26a1,1,0,0,1,0,2h-26a15,15,0,0,0-15,15v11A1,1,0,0,1,94.17,71.62Z"/><path class="cls-1" d="M80.69,109.9a1,1,0,0,1,0-2l35-1.29a5,5,0,0,0-.33-10l-35,1.28a1,1,0,1,1-.08-2l35-1.29a7,7,0,0,1,.47,14l-35,1.29Z"/><path class="cls-1" d="M77.56,121.26a1,1,0,0,1,0-2l32-1.19a5.16,5.16,0,0,0,3.52-1.49,4.43,4.43,0,0,0,1.33-3.3,4.82,4.82,0,0,0-5.15-4.45l-15,.62a1,1,0,0,1-1-1,1,1,0,0,1,1-1l15-.62a6.8,6.8,0,0,1,7.22,6.39,6.39,6.39,0,0,1-1.92,4.77,7.13,7.13,0,0,1-4.86,2.08l-32,1.19Z"/><path class="cls-1" d="M51.48,133.38c-.35,0-7.84,0-12.53-2.2a18.44,18.44,0,0,1-8.44-7.62L18.15,124a1,1,0,0,1-.07-2l13-.43a1,1,0,0,1,.94.6,16.37,16.37,0,0,0,7.77,7.23c4.29,2,11.58,2,11.66,2l48.44-1.6a4.64,4.64,0,1,0-.31-9.25l-19,.63a1,1,0,0,1-.07-2l19-.63a6.64,6.64,0,1,1,.44,13.25Z"/><path class="cls-1" d="M17.13,94a1,1,0,0,1,0-2l11.4-.38a43.05,43.05,0,0,1,6.6-8.93c3.6-3.85,8.8-5.61,14.3-7.48,2.2-.74,4.48-1.51,6.74-2.45,7.53-3.11,19.71-7.33,20.74-7.68.51-.26,3.17-1.49,5.26-.29,1.42.82,2.18,2.49,2.27,5C84.65,77.42,77.08,79.94,77,80c-3.52,1.27-9.29,3.68-10.58,5.06A1,1,0,1,1,65,83.66c2-2.17,10.45-5.24,11.4-5.59.28-.09,6.24-2.11,6-8.25,0-1.2-.29-2.75-1.27-3.31s-2.85.07-3.38.36a.76.76,0,0,1-.16.06c-.12,0-12.92,4.46-20.7,7.67-2.31,1-4.62,1.74-6.86,2.5-5.25,1.78-10.22,3.46-13.48,7A38.54,38.54,0,0,0,30,93a1,1,0,0,1-.88.58l-12,.4Z"/><path class="cls-1" d="M91.78,97.53a1,1,0,0,1-1-1,1,1,0,0,1,.95-1l18-.73a5,5,0,0,0,3.49-1.58,4.91,4.91,0,0,0,1.35-3.58,5,5,0,0,0-5.16-4.83l-44,1.58a1,1,0,0,1-.82-.38,1,1,0,0,1-.18-.88l.28-1a1,1,0,0,1,2,.26l42.65-1.53a7,7,0,0,1,.47,14l-18,.72Z"/><path class="cls-1" d="M105.17,128.62a1,1,0,0,1-1-.72,1,1,0,0,1,.68-1.24l35.64-10.24-8.92-6a1,1,0,0,1-.32-1.31l5.88-10.56L128.35,92a1,1,0,0,1-.35-1.12l3.63-10.57-8.93-6.71a1,1,0,0,1-.35-1.12L125.6,63,83.43,74.59a1,1,0,0,1-.53-1.93l44-12.13a1,1,0,0,1,1.21,1.29l-3.63,10.57,8.93,6.71a1,1,0,0,1,.35,1.12l-3.63,10.57,8.93,6.71a1,1,0,0,1,.28,1.29l-5.85,10.51,9.94,6.65a1,1,0,0,1-.28,1.8l-37.7,10.83A1,1,0,0,1,105.17,128.62Z"/><path class="cls-1" d="M113.58,37.63h-.46a1,1,0,0,1-1-1,1,1,0,0,1,1-1c1.2.06,4.67-.13,6.24-1.7,1.4-1.4,1.71-5,1.71-6.3a1,1,0,0,1,1-1h0a1,1,0,0,1,1,1c0,.56-.07,5.48-2.29,7.71S114.9,37.63,113.58,37.63Z"/><path class="cls-1" d="M131.17,37.63c-.55,0-5.48-.07-7.7-2.3-2.53-2.52-2.31-7.54-2.3-7.75a1,1,0,0,1,2,.1c-.06,1.2.14,4.67,1.71,6.24,1.4,1.39,5,1.71,6.29,1.71a1,1,0,0,1,0,2Z"/><path class="cls-1" d="M122.17,46.63h0a1,1,0,0,1-1-1c0-.55.07-5.48,2.3-7.71,2.52-2.52,7.54-2.3,7.75-2.29a1,1,0,1,1-.1,2c-1.2-.06-4.67.14-6.24,1.71-1.4,1.39-1.71,5-1.71,6.29A1,1,0,0,1,122.17,46.63Z"/><path class="cls-1" d="M122.17,46.63h0a1,1,0,0,1-1-1.05c.06-1.21-.14-4.68-1.71-6.25-1.39-1.39-5-1.7-6.29-1.7a1,1,0,0,1,0-2c.55,0,5.48.06,7.71,2.29,2.52,2.52,2.3,7.54,2.29,7.76A1,1,0,0,1,122.17,46.63Z"/><path class="cls-1" d="M62.58,51.63h-.46a1,1,0,0,1-.95-1,1,1,0,0,1,1-1c1.2.06,4.67-.13,6.24-1.7,1.4-1.4,1.71-5,1.71-6.3a1,1,0,0,1,1-1h0a1,1,0,0,1,1,1c0,.56-.07,5.48-2.29,7.71S63.9,51.63,62.58,51.63Z"/><path class="cls-1" d="M80.17,51.63c-.55,0-5.48-.07-7.7-2.3-2.53-2.52-2.31-7.54-2.3-7.75a1,1,0,1,1,2,.1c-.06,1.2.14,4.67,1.71,6.24,1.4,1.39,5,1.71,6.29,1.71a1,1,0,0,1,0,2Z"/><path class="cls-1" d="M71.17,60.63h0a1,1,0,0,1-1-1c0-.55.07-5.48,2.3-7.71C75,49.4,80,49.62,80.22,49.63a1,1,0,0,1-.1,2c-1.2-.06-4.67.14-6.24,1.71-1.4,1.39-1.71,5-1.71,6.29A1,1,0,0,1,71.17,60.63Z"/><path class="cls-1" d="M71.17,60.63h0a1,1,0,0,1-1-1.05c.06-1.21-.14-4.68-1.71-6.25-1.39-1.39-5-1.7-6.29-1.7a1,1,0,0,1,0-2c.55,0,5.48.06,7.71,2.29,2.52,2.52,2.3,7.54,2.29,7.76A1,1,0,0,1,71.17,60.63Z"/></g></svg>