<svg xmlns="http://www.w3.org/2000/svg" viewBox="0 0 160 160"><defs><style>.cls-1{fill:#fff;}</style></defs><title>hands</title><g id="Layer_2" data-name="Layer 2"><path class="cls-1" d="M48.23,71.77a1,1,0,0,1-1-1v-36a4.54,4.54,0,1,0-9.07,0v36a1,1,0,0,1-2,0v-36a6.54,6.54,0,1,1,13.07,0v36A1,1,0,0,1,48.23,71.77Z"/><path class="cls-1" d="M58.61,75a1,1,0,0,1-1-1V40.78a4.2,4.2,0,1,0-8.38,0V58.32a1,1,0,0,1-2,0V40.78a6.2,6.2,0,1,1,12.38,0V74A1,1,0,0,1,58.61,75Z"/><path class="cls-1" d="M59.3,129.9a1,1,0,0,1-1-1v-12a1,1,0,0,1,.63-.93,15,15,0,0,0,6.86-6.9C67.73,105.2,68,98.49,68,98.42V53.7a4.2,4.2,0,1,0-8.38,0V71.23a1,1,0,0,1-2,0V53.7A6.2,6.2,0,1,1,70,53.7V98.45c0,.33-.27,7.25-2.41,11.52a17.14,17.14,0,0,1-7.28,7.57V128.9A1,1,0,0,1,59.3,129.9Z"/><path class="cls-1" d="M18.6,104.1a1,1,0,0,1-.94-.67c-.54-1.54-1-3.12-1.53-4.8-.62-2-1.26-4.18-2-6.28C11.44,85.32,7.93,74,7.62,73c-.25-.54-1.29-3-.1-4.93.81-1.31,2.4-2,4.72-2,5.71,0,8.56,4.7,9.27,7.19,1,3.08,3.14,8.49,4.36,9.71s3.51,2.42,5.94,3.71c1,.55,2.08,1.1,3.08,1.67,5.92,3.39,8.8,7.9,8.8,13.79a1,1,0,0,1-2,0c0-5.18-2.48-9-7.8-12.05-1-.56-2-1.11-3-1.64-2.58-1.36-5-2.65-6.42-4.06-2-2-4.57-9.67-4.86-10.54-.08-.28-1.75-5.78-7.36-5.78-1.08,0-2.49.18-3,1s0,2.53.23,3.06l.06.15c0,.12,3.71,12.06,6.44,19.32.81,2.17,1.46,4.33,2.09,6.41.5,1.65,1,3.22,1.51,4.72a1,1,0,0,1-.61,1.27A1,1,0,0,1,18.6,104.1Z"/><path class="cls-1" d="M31.62,129.9a1,1,0,0,1-1-1V118.42a39.72,39.72,0,0,1-8-6.34,15.71,15.71,0,0,1-2.11-2.62,1,1,0,1,1,1.67-1.09,14.77,14.77,0,0,0,1.85,2.3,35.86,35.86,0,0,0,8.05,6.27,1,1,0,0,1,.55.89V128.9A1,1,0,0,1,31.62,129.9Z"/><path class="cls-1" d="M37.16,61.16a1,1,0,0,1-1-1V39.86a4.54,4.54,0,0,0-9.08,0V54.43a1,1,0,0,1-2,0V39.86a6.54,6.54,0,0,1,13.08,0v20.3A1,1,0,0,1,37.16,61.16Z"/><path class="cls-1" d="M26.08,85.15a1,1,0,0,1-1-1V56.09a1,1,0,0,1,2,0V84.15A1,1,0,0,1,26.08,85.15Z"/><path class="cls-1" d="M14,56.55h-.42a1,1,0,1,1,.1-2c1.1.05,4.27-.13,5.7-1.55,1.27-1.28,1.55-4.59,1.55-5.76a1,1,0,0,1,2,0c0,.52-.06,5.09-2.14,7.17S15.23,56.55,14,56.55Z"/><path class="cls-1" d="M30.24,56.55c-.51,0-5.09-.06-7.17-2.14-2.35-2.35-2.14-7-2.13-7.21a1,1,0,0,1,1-1,1,1,0,0,1,.95,1c-.05,1.11.13,4.28,1.56,5.71,1.27,1.27,4.58,1.55,5.75,1.55a1,1,0,0,1,0,2Z"/><path class="cls-1" d="M21.94,64.86a1,1,0,0,1-1-1c0-.52.06-5.09,2.13-7.17,2.35-2.35,7-2.15,7.22-2.13a1,1,0,0,1,.95,1,1,1,0,0,1-1,.95c-1.1,0-4.27.13-5.7,1.56-1.28,1.27-1.55,4.58-1.55,5.75A1,1,0,0,1,21.94,64.86Z"/><path class="cls-1" d="M21.93,64.85h-.05a1,1,0,0,1-.95-1c.06-1.1-.12-4.28-1.55-5.71-1.27-1.26-4.58-1.55-5.75-1.55a1,1,0,1,1,0-2c.51,0,5.09.06,7.16,2.14,2.35,2.35,2.15,7,2.14,7.22A1,1,0,0,1,21.93,64.85Z"/><path class="cls-1" d="M79.51,66.7h-.42a1,1,0,0,1-1-1,1,1,0,0,1,1-1c1.1,0,4.28-.13,5.7-1.55s1.56-4.59,1.56-5.76a1,1,0,0,1,2,0c0,.52-.06,5.09-2.14,7.17S80.75,66.7,79.51,66.7Z"/><path class="cls-1" d="M95.75,66.7c-.51,0-5.08-.06-7.16-2.14-2.35-2.35-2.15-7-2.14-7.21a1,1,0,0,1,2,.09c0,1.11.12,4.28,1.55,5.71,1.28,1.27,4.59,1.55,5.75,1.55a1,1,0,0,1,0,2Z"/><path class="cls-1" d="M87.45,75a1,1,0,0,1-1-1c0-.52.06-5.09,2.14-7.17,2.35-2.35,7-2.15,7.21-2.13a1,1,0,0,1,1,1,1,1,0,0,1-1,1c-1.11,0-4.28.13-5.71,1.56-1.27,1.27-1.55,4.58-1.55,5.75A1,1,0,0,1,87.45,75Z"/><path class="cls-1" d="M87.45,75h0a1,1,0,0,1-1-1c0-1.11-.13-4.28-1.56-5.71C83.63,67,80.31,66.7,79.14,66.7a1,1,0,0,1,0-2c.52,0,5.09.06,7.17,2.14,2.35,2.35,2.14,7,2.13,7.21A1,1,0,0,1,87.45,75Z"/><path class="cls-1" d="M107.2,87.93h-.43a1,1,0,0,1,.1-2c1.1,0,4.28-.12,5.71-1.55,1.27-1.28,1.55-4.59,1.55-5.75a1,1,0,0,1,2,0c0,.51-.06,5.08-2.14,7.16S108.43,87.93,107.2,87.93Z"/><path class="cls-1" d="M123.44,87.92c-.52,0-5.09-.06-7.17-2.13-2.35-2.35-2.15-7-2.14-7.22a1,1,0,1,1,2,.1c0,1.1.13,4.27,1.55,5.7,1.28,1.28,4.59,1.55,5.76,1.55a1,1,0,0,1,0,2Z"/><path class="cls-1" d="M115.13,96.23a1,1,0,0,1-1-1c0-.51.06-5.09,2.14-7.16,2.35-2.35,7-2.15,7.21-2.14a1,1,0,0,1,1,1,1,1,0,0,1-1,1c-1.1-.06-4.28.12-5.71,1.55-1.27,1.27-1.55,4.58-1.55,5.75A1,1,0,0,1,115.13,96.23Z"/><path class="cls-1" d="M115.13,96.23h0a1,1,0,0,1-1-1c.05-1.1-.13-4.28-1.55-5.7s-4.59-1.56-5.76-1.56a1,1,0,0,1,0-2c.52,0,5.09.06,7.17,2.14,2.35,2.35,2.15,7,2.14,7.22A1,1,0,0,1,115.13,96.23Z"/><path class="cls-1" d="M130.26,44.56h-.42a1,1,0,0,1,.1-2c1.1.05,4.27-.12,5.7-1.55,1.28-1.27,1.56-4.58,1.56-5.75a1,1,0,0,1,2,0c0,.51-.06,5.09-2.14,7.16S131.5,44.56,130.26,44.56Z"/><path class="cls-1" d="M146.5,44.56c-.51,0-5.08-.06-7.16-2.14-2.35-2.35-2.15-7-2.14-7.22a1,1,0,1,1,2,.1c0,1.1.12,4.28,1.55,5.7,1.28,1.28,4.59,1.56,5.75,1.56a1,1,0,0,1,0,2Z"/><path class="cls-1" d="M138.2,52.86a1,1,0,0,1-1-1c0-.51.06-5.08,2.14-7.16,2.35-2.35,7-2.15,7.21-2.14a1,1,0,0,1-.09,2c-1.1-.05-4.28.12-5.71,1.55-1.27,1.28-1.55,4.59-1.55,5.75A1,1,0,0,1,138.2,52.86Z"/><path class="cls-1" d="M138.2,52.86h0a1,1,0,0,1-1-1c.05-1.1-.13-4.27-1.56-5.7-1.26-1.27-4.58-1.55-5.75-1.55a1,1,0,0,1-1-1,1,1,0,0,1,1-1c.52,0,5.09.06,7.17,2.13,2.35,2.35,2.14,7,2.13,7.22A1,1,0,0,1,138.2,52.86Z"/><path class="cls-1" d="M12.15,106.38h-.42a1,1,0,1,1,.1-2c1.1.05,4.28-.13,5.7-1.56,1.28-1.27,1.56-4.58,1.56-5.75a1,1,0,0,1,2,0c0,.51-.06,5.09-2.14,7.17S13.39,106.38,12.15,106.38Z"/><path class="cls-1" d="M28.39,106.38c-.51,0-5.08-.06-7.16-2.14-2.35-2.35-2.15-7-2.14-7.22a1,1,0,0,1,2,.1c-.05,1.1.12,4.28,1.55,5.71,1.28,1.27,4.59,1.55,5.75,1.55a1,1,0,0,1,0,2Z"/><path class="cls-1" d="M20.09,114.69h0a1,1,0,0,1-1-1c0-.52.06-5.09,2.14-7.17,2.35-2.35,7-2.15,7.21-2.14a1,1,0,0,1-.09,2c-1.1,0-4.28.13-5.71,1.55-1.27,1.27-1.55,4.59-1.55,5.76A1,1,0,0,1,20.09,114.69Z"/><path class="cls-1" d="M20.09,114.68H20a1,1,0,0,1-.95-1.05c.05-1.1-.13-4.27-1.56-5.7-1.27-1.27-4.58-1.55-5.75-1.55a1,1,0,0,1,0-2c.52,0,5.09.06,7.17,2.14,2.35,2.35,2.15,7,2.14,7.21A1,1,0,0,1,20.09,114.68Z"/><path class="cls-1" d="M67.52,96.23H67.1a1,1,0,1,1,.09-2c1.1,0,4.28-.13,5.71-1.56,1.27-1.27,1.55-4.58,1.55-5.75a1,1,0,0,1,2,0c0,.52-.06,5.09-2.14,7.17S68.75,96.23,67.52,96.23Z"/><path class="cls-1" d="M83.76,96.23c-.52,0-5.09-.06-7.17-2.14-2.35-2.35-2.15-7-2.13-7.22a1,1,0,0,1,1-.94,1,1,0,0,1,1,1c0,1.1.13,4.28,1.56,5.71,1.27,1.27,4.58,1.55,5.75,1.55a1,1,0,0,1,0,2Z"/><path class="cls-1" d="M75.45,104.54a1,1,0,0,1-1-1c0-.52.06-5.09,2.14-7.17,2.35-2.35,7-2.15,7.22-2.14a1,1,0,1,1-.1,2c-1.1,0-4.28.13-5.7,1.55s-1.56,4.59-1.56,5.76A1,1,0,0,1,75.45,104.54Z"/><path class="cls-1" d="M75.45,104.53h0a1,1,0,0,1-1-1c0-1.1-.12-4.27-1.55-5.7-1.28-1.27-4.59-1.55-5.75-1.55a1,1,0,0,1,0-2c.51,0,5.08.06,7.16,2.14,2.35,2.35,2.15,7,2.14,7.21A1,1,0,0,1,75.45,104.53Z"/><path class="cls-1" d="M122.84,73.62a1,1,0,0,1-1-1v-36a4.54,4.54,0,0,0-9.07,0v36a1,1,0,0,1-2,0v-36a6.54,6.54,0,0,1,13.07,0v36A1,1,0,0,1,122.84,73.62Z"/><path class="cls-1" d="M101.39,76.85a1,1,0,0,1-1-1V42.63a6.2,6.2,0,1,1,12.38,0V60.16a1,1,0,1,1-2,0V42.63a4.2,4.2,0,1,0-8.38,0V75.85A1,1,0,0,1,101.39,76.85Z"/><path class="cls-1" d="M100.7,131.75a1,1,0,0,1-1-1V119.39a17.2,17.2,0,0,1-7.28-7.57c-2.14-4.27-2.4-11.19-2.41-11.49V55.55a6.2,6.2,0,1,1,12.38,0V73.08a1,1,0,0,1-2,0V55.55a4.2,4.2,0,1,0-8.38,0V100.3s.26,6.74,2.2,10.63a15,15,0,0,0,6.86,6.9,1,1,0,0,1,.63.92v12A1,1,0,0,1,100.7,131.75Z"/><path class="cls-1" d="M128.38,131.75a1,1,0,0,1-1-1V119.68a1,1,0,0,1,.55-.9,35.11,35.11,0,0,0,8-6.27c3.1-3.1,4.5-7.72,6-12.61.63-2.09,1.28-4.24,2.09-6.41,2.73-7.27,6.4-19.2,6.44-19.32l.06-.15c.26-.53.81-2.12.23-3.06s-1.94-1-3-1c-5.64,0-7.33,5.67-7.35,5.73-.3.92-2.91,8.63-4.87,10.58-1.41,1.42-3.84,2.7-6.42,4.07-1,.53-2,1.07-3,1.63-5.32,3-7.8,6.87-7.8,12a1,1,0,1,1-2,0c0-5.89,2.88-10.4,8.8-13.79,1-.57,2-1.12,3.08-1.66a27.88,27.88,0,0,0,5.94-3.71c1.22-1.22,3.33-6.64,4.37-9.76.7-2.44,3.55-7.14,9.26-7.14,2.32,0,3.91.66,4.72,2,1.19,1.93.15,4.38-.1,4.92-.31,1-3.82,12.34-6.46,19.36-.79,2.11-1.43,4.23-2,6.29-1.56,5.14-3,10-6.48,13.45a40.11,40.11,0,0,1-8,6.34v10.48A1,1,0,0,1,128.38,131.75Z"/><path class="cls-1" d="M133.92,87a1,1,0,0,1-1-1V41.71a4.54,4.54,0,1,0-9.08,0V62a1,1,0,0,1-2,0V41.71a6.54,6.54,0,1,1,13.08,0V86A1,1,0,0,1,133.92,87Z"/></g></svg>