<svg xmlns="http://www.w3.org/2000/svg" viewBox="0 0 160 160"><defs><style>.cls-1{fill:#fff;}</style></defs><title>hands</title><g id="Layer_2" data-name="Layer 2"><path class="cls-1" d="M44.15,112.75h-12a1,1,0,0,1,0-2h12a1,1,0,1,1,0,2Z"/><path class="cls-1" d="M100.15,136.75h-68a1,1,0,0,1,0-2H99.79l26.07-21.42a2.67,2.67,0,0,0,.82-3,3.52,3.52,0,0,0-3.53-2.57,7.84,7.84,0,0,0-5.3,1.71.27.27,0,0,1-.08.07l-19,15a1,1,0,0,1-.62.22h-24c-2.77,0-8-1.25-8-6,0-3.09,0-6,3-6H82c.88-.29,6.15-2.15,6.15-6s-2.88-4-3-4h-25c-.07,0-7.6.09-12.23,5.64a15.22,15.22,0,0,0-3.78,11.2,1,1,0,1,1-2,.32c-.05-.26-1-6.52,4.21-12.8s13.43-6.36,13.77-6.36h25c1.73,0,5,1.25,5,6,0,5.69-7.41,7.87-7.72,8a.9.9,0,0,1-.28,0h-13c-.84,0-1,.64-1,4,0,4,5.94,4,6,4H97.8L116.5,108a9.9,9.9,0,0,1,6.65-2.24,5.53,5.53,0,0,1,5.4,3.86,4.67,4.67,0,0,1-1.42,5.27l-26.34,21.64A1,1,0,0,1,100.15,136.75Z"/><path class="cls-1" d="M89.15,124.75a1,1,0,0,1-.62-1.78l19-15a9.9,9.9,0,0,1,6.65-2.24,5.43,5.43,0,0,1,3.64,1.26,1,1,0,1,1-1.3,1.52,3.41,3.41,0,0,0-2.34-.78,7.84,7.84,0,0,0-5.3,1.71.27.27,0,0,1-.08.07l-19,15A1,1,0,0,1,89.15,124.75Z"/><path class="cls-1" d="M80.15,124.75a1,1,0,0,1-.62-1.78l19-15a9.9,9.9,0,0,1,6.65-2.24,5.43,5.43,0,0,1,3.64,1.26,1,1,0,1,1-1.3,1.52,3.41,3.41,0,0,0-2.34-.78,7.84,7.84,0,0,0-5.3,1.71.27.27,0,0,1-.08.07l-19,15A1,1,0,0,1,80.15,124.75Z"/><path class="cls-1" d="M95.78,101.75a6.27,6.27,0,0,1-6.27-6.26c0-1.31.45-4.35,1.47-5.64l3.94-6.61a1,1,0,0,1,.86-.49h0a1,1,0,0,1,.86.49l3.93,6.61c1,1.29,1.47,4.33,1.47,5.64A6.27,6.27,0,0,1,95.78,101.75Zm0-16-3.12,5.23-.1.14a9.93,9.93,0,0,0-1,4.41,4.27,4.27,0,0,0,8.53,0,10.08,10.08,0,0,0-1-4.41.76.76,0,0,1-.11-.14Z"/><path class="cls-1" d="M95.68,98.11a3.44,3.44,0,0,1-3.43-3.43,1,1,0,0,1,2,0,1.42,1.42,0,0,0,2.5.94,1,1,0,0,1,1.41-.09,1,1,0,0,1,.09,1.41A3.43,3.43,0,0,1,95.68,98.11Z"/><path class="cls-1" d="M114.27,75.25H79a4.39,4.39,0,0,1-4.38-4.38V27.63A4.39,4.39,0,0,1,79,23.25h35.24a4.38,4.38,0,0,1,4.38,4.38V70.87A4.38,4.38,0,0,1,114.27,75.25ZM79,25.25a2.39,2.39,0,0,0-2.38,2.38V70.87A2.39,2.39,0,0,0,79,73.25h35.24a2.39,2.39,0,0,0,2.38-2.38V27.63a2.39,2.39,0,0,0-2.38-2.38Z"/><path class="cls-1" d="M117.65,47.25h-42a1,1,0,0,1,0-2h42a1,1,0,0,1,0,2Z"/><path class="cls-1" d="M110.65,39.25a1,1,0,0,1-1-1v-4a1.88,1.88,0,0,0-2-2h-6a1,1,0,0,1,0-2h6a3.89,3.89,0,0,1,4,4v4A1,1,0,0,1,110.65,39.25Z"/><path class="cls-1" d="M110.65,43.25a1,1,0,0,1-1-1v-1a1,1,0,0,1,2,0v1A1,1,0,0,1,110.65,43.25Z"/><path class="cls-1" d="M99.65,81.25h-8a1,1,0,0,1-1-1v-6a1,1,0,0,1,1-1h8a1,1,0,0,1,1,1v6A1,1,0,0,1,99.65,81.25Zm-7-2h6v-4h-6Z"/></g></svg>