<svg xmlns="http://www.w3.org/2000/svg" viewBox="0 0 160 160"><defs><style>.cls-1{fill:#fff;}</style></defs><title>hands</title><g id="Layer_2" data-name="Layer 2"><path class="cls-1" d="M102.87,51.27a1,1,0,0,1-.73-1.68l13.4-14.39a5,5,0,1,0-7.31-6.82L88.6,49a1,1,0,1,1-1.45-1.38L106.77,27A7,7,0,0,1,117,36.56L103.6,51A1,1,0,0,1,102.87,51.27Z"/><path class="cls-1" d="M109.87,60.27a1,1,0,0,1-.73-1.68l10.19-11a4.64,4.64,0,1,0-6.76-6.31l-9,9.64a1,1,0,0,1-1.47-1.36l9-9.64a6.64,6.64,0,1,1,9.7,9L110.61,60A1,1,0,0,1,109.87,60.27Z"/><path class="cls-1" d="M55.48,119.66a1,1,0,0,1-.67-.26,1,1,0,0,1-.07-1.41l9.39-10.39a1,1,0,1,1,1.48,1.34l-9.39,10.39A1,1,0,0,1,55.48,119.66Z"/><path class="cls-1" d="M115.86,70.31a1,1,0,0,1-.69-.27,1,1,0,0,1,0-1.41l2.88-3.1a4.82,4.82,0,0,0,0-6.81,4.41,4.41,0,0,0-3.36-1.16,5.21,5.21,0,0,0-3.43,1.66l-.63.71a1,1,0,0,1-1.41.09,1,1,0,0,1-.09-1.41l.65-.73a7.14,7.14,0,0,1,4.78-2.31,6.38,6.38,0,0,1,4.85,1.69,6.83,6.83,0,0,1,.08,9.64L116.59,70A1,1,0,0,1,115.86,70.31Z"/><path class="cls-1" d="M31.54,97.2a1,1,0,0,1-.73-1.69l7.78-8.34a42.93,42.93,0,0,1-1.67-11c-.25-7,3.5-16.76,7-25.31,3.21-7.76,7.92-22.77,8-22.92.1-.41,1.22-4.44,4-5.2,1.49-.41,3,.2,4.65,1.79,3.33,3.33,2.32,9.61,2.28,9.88-.86,4-3.07,14.58-3,16.8A9.21,9.21,0,0,0,60,52.46a1,1,0,1,1-2,.34,13.41,13.41,0,0,1-.18-1.49c-.1-2.87,2.71-15.79,3-17.25,0,0,.86-5.49-1.73-8.08-1.06-1.05-2-1.48-2.72-1.28-1.41.38-2.38,2.95-2.61,3.82-.06.2-4.8,15.29-8,23.13C42.35,60,38.68,69.48,38.92,76.13a38.78,38.78,0,0,0,1.74,10.94,1,1,0,0,1-.2,1l-8.19,8.78A1,1,0,0,1,31.54,97.2Z"/><path class="cls-1" d="M88.74,48.8a1,1,0,0,1-.68-.26,1,1,0,0,1,0-1.42L103,31a5,5,0,0,0-7.31-6.82L78.57,41a1,1,0,0,1-1.4-1.43l17.1-16.74a6.86,6.86,0,0,1,4.84-2.19,6.94,6.94,0,0,1,5,1.87,7,7,0,0,1,.35,9.9l-15,16.09A1,1,0,0,1,88.74,48.8Z"/><path class="cls-1" d="M83.5,84.19a1,1,0,0,1-.82-.43l-22.23-32a7,7,0,1,1,11.5-8l22.23,32a1,1,0,0,1-.25,1.39,1,1,0,0,1-1.39-.25l-22.23-32a5,5,0,1,0-8.22,5.7l22.23,32A1,1,0,0,1,84.07,84,.94.94,0,0,1,83.5,84.19Z"/><path class="cls-1" d="M104.6,73.82a1,1,0,0,1-.83-.43L83.26,43.81a4.64,4.64,0,1,0-7.6,5.27L86.49,64.69a1,1,0,0,1-1.65,1.14L74,50.22A6.64,6.64,0,1,1,84.9,42.67l20.52,29.58a1,1,0,0,1-.25,1.39A1,1,0,0,1,104.6,73.82Z"/><path class="cls-1" d="M139.13,122.28a1,1,0,0,1-.82-.43l-7.41-10.68a1,1,0,0,1,0-1.13,16.18,16.18,0,0,0,1.86-10.43c-.67-4.68-4.6-10.83-4.64-10.89L100.48,48.9a5.16,5.16,0,0,0-3.16-2.14A4.39,4.39,0,0,0,92,50.46a5.16,5.16,0,0,0,.9,3.71l10.83,15.61a1,1,0,0,1-1.65,1.14L91.24,55.31A7.18,7.18,0,0,1,90,50.17a6.39,6.39,0,0,1,7.74-5.37,7.15,7.15,0,0,1,4.38,3l27.65,39.85c.19.29,4.22,6.6,4.95,11.71a18.47,18.47,0,0,1-1.82,11.23l7,10.16a1,1,0,0,1-.25,1.39A1,1,0,0,1,139.13,122.28Z"/><path class="cls-1" d="M114.48,139.38a1,1,0,0,1-.82-.43l-6.51-9.37a42.81,42.81,0,0,1-11.08-.7c-5.19-.94-9.49-4.35-14-8-1.82-1.44-3.7-2.94-5.71-4.33C69.62,112,59.47,104,58.61,103.34c-.49-.29-3-1.85-3.09-4.26-.09-1.64.9-3.19,2.94-4.61,6.3-4.37,12.53.62,12.59.67,3,2.28,8.13,5.81,10,6.15a1,1,0,0,1-.35,2c-2.94-.53-10.08-5.93-10.89-6.55-.23-.19-5.16-4.09-10.21-.59-1,.68-2.15,1.73-2.09,2.86s1.6,2.36,2.14,2.65a.6.6,0,0,1,.13.09c.11.08,10.76,8.44,17.68,13.23,2.06,1.43,4,2.94,5.82,4.4,4.35,3.45,8.45,6.71,13.15,7.56a39.16,39.16,0,0,0,11.07.62,1,1,0,0,1,1,.42l6.84,9.86a1,1,0,0,1-.25,1.39A1,1,0,0,1,114.48,139.38Z"/><path class="cls-1" d="M80.87,103.27a1,1,0,0,1-.54-1.84L53.72,63.08a7,7,0,0,1,11.51-8L77.77,73.17a1,1,0,0,1-.26,1.4,1,1,0,0,1-1.39-.26L63.58,56.24a4.91,4.91,0,0,0-3.22-2.07,5,5,0,0,0-5,7.77l27.36,39.44a1,1,0,0,1-.53,1.52l-1,.33A1,1,0,0,1,80.87,103.27Z"/><path class="cls-1" d="M80,128.57a24.19,24.19,0,0,1-12.67-3.44,8.92,8.92,0,0,1-4.47-9,1,1,0,1,1,2,.38h0a6.86,6.86,0,0,0,3.54,7c5.2,3.12,19.79,8.31,42.84-10.91C132.25,95,140.14,84,136,77.83c-3.64-5.47-10.1-5.56-10.17-5.56a1,1,0,0,1,0-2,15.09,15.09,0,0,1,11.84,6.45c4.9,7.36-2.63,18.52-25.2,37.32C106.46,119.08,93.31,128.57,80,128.57Z"/><path class="cls-1" d="M129.87,80.27a1,1,0,0,1-.8-.4l-6-8a1,1,0,0,1-.18-.77,1,1,0,0,1,.43-.66l9-6a1,1,0,1,1,1.11,1.66l-8.12,5.42,5.36,7.15a1,1,0,0,1-.2,1.4A1,1,0,0,1,129.87,80.27Z"/><path class="cls-1" d="M26.37,88.27a6.5,6.5,0,1,1,6.5-6.5A6.51,6.51,0,0,1,26.37,88.27Zm0-11a4.5,4.5,0,1,0,4.5,4.5A4.51,4.51,0,0,0,26.37,77.27Z"/><path class="cls-1" d="M28.49,82.35a1,1,0,0,1-1-1,.69.69,0,0,0-.69-.69,1,1,0,1,1,0-2,2.69,2.69,0,0,1,2.69,2.69A1,1,0,0,1,28.49,82.35Z"/><path class="cls-1" d="M93.37,100.27a6.5,6.5,0,1,1,6.5-6.5A6.51,6.51,0,0,1,93.37,100.27Zm0-11a4.5,4.5,0,1,0,4.5,4.5A4.51,4.51,0,0,0,93.37,89.27Z"/><path class="cls-1" d="M95.49,94.35a1,1,0,0,1-1-1,.69.69,0,0,0-.69-.69,1,1,0,1,1,0-2,2.69,2.69,0,0,1,2.69,2.69A1,1,0,0,1,95.49,94.35Z"/><path class="cls-1" d="M57.8,86.35a1,1,0,0,1-1-1,2.68,2.68,0,0,1,2.69-2.69,1,1,0,1,1,0,2,.69.69,0,0,0-.69.69A1,1,0,0,1,57.8,86.35Z"/><path class="cls-1" d="M60.37,95.27a8.49,8.49,0,0,1-6.62-13.82,8.49,8.49,0,0,1,2.6-16.12,1,1,0,0,1,.24,2,6.5,6.5,0,0,0-.8,12.75,1,1,0,0,1,.73.74,1,1,0,0,1-.33,1,6.49,6.49,0,0,0,4.18,11.47,6.4,6.4,0,0,0,2.09-.34,1,1,0,1,1,.65,1.89A8.46,8.46,0,0,1,60.37,95.27Z"/><path class="cls-1" d="M62.28,37.27a1,1,0,0,1-.74-.32,1,1,0,0,1,.06-1.42,8.55,8.55,0,0,1,7.91-2,8.5,8.5,0,0,1,15.74,0,1,1,0,0,1-1.85.75,6.49,6.49,0,0,0-12.29.74,1.05,1.05,0,0,1-.52.63,1,1,0,0,1-.82,0A6.53,6.53,0,0,0,63,37,1,1,0,0,1,62.28,37.27Z"/><path class="cls-1" d="M54.87,82.27a1,1,0,0,1-.7-1.71c.23-.23,2.36-2.29,4.7-2.29a1,1,0,0,1,0,2A5.89,5.89,0,0,0,55.58,82,1,1,0,0,1,54.87,82.27Z"/><path class="cls-1" d="M72.87,38.27a1,1,0,0,1-1-.9c0-.09-.25-.6-1.45-1.2a1,1,0,1,1,.89-1.79c2.43,1.21,2.55,2.62,2.55,2.89A1,1,0,0,1,72.87,38.27Zm-1-.89Zm0-.11Zm0,0Z"/></g></svg>