<svg xmlns="http://www.w3.org/2000/svg" viewBox="0 0 160 160"><defs><style>.cls-1{fill:#fff;}</style></defs><title>hands</title><g id="Layer_2" data-name="Layer 2"><path class="cls-1" d="M114.45,99.22a6.5,6.5,0,1,1,6.5-6.5A6.51,6.51,0,0,1,114.45,99.22Zm0-11a4.5,4.5,0,1,0,4.5,4.5A4.51,4.51,0,0,0,114.45,88.22Z"/><path class="cls-1" d="M112.34,93.3a1,1,0,0,1-1-1A2.69,2.69,0,0,1,114,89.61a1,1,0,0,1,0,2,.69.69,0,0,0-.69.69A1,1,0,0,1,112.34,93.3Z"/><path class="cls-1" d="M33.45,109.22a6.5,6.5,0,1,1,6.5-6.5A6.51,6.51,0,0,1,33.45,109.22Zm0-11a4.5,4.5,0,1,0,4.5,4.5A4.51,4.51,0,0,0,33.45,98.22Z"/><path class="cls-1" d="M31.34,103.3a1,1,0,0,1-1-1A2.69,2.69,0,0,1,33,99.61a1,1,0,0,1,0,2,.69.69,0,0,0-.69.69A1,1,0,0,1,31.34,103.3Z"/><path class="cls-1" d="M95.45,38.22a6.5,6.5,0,1,1,6.5-6.5A6.51,6.51,0,0,1,95.45,38.22Zm0-11a4.5,4.5,0,1,0,4.5,4.5A4.51,4.51,0,0,0,95.45,27.22Z"/><path class="cls-1" d="M93.34,32.3a1,1,0,0,1-1-1A2.69,2.69,0,0,1,95,28.61a1,1,0,0,1,0,2,.69.69,0,0,0-.69.69A1,1,0,0,1,93.34,32.3Z"/><path class="cls-1" d="M112,142.22a1,1,0,0,1-.92-.61l-4.81-11.54c-2.53-.64-13.74-3.82-21.93-11.1a55.44,55.44,0,0,0-19.6-10.78C63.4,107.72,52.83,103.71,54,98c.45-2.24,1.3-3.73,2.62-4.56,1.86-1.18,4.27-.8,6.6-.22a33.62,33.62,0,0,1,4.91,1.87c1.64.72,4.39,1.94,5,1.62.78-1.59.81-3-1.69-4.69-3-2-12.92-8.94-13-9-1.66-1.24-4-4.77-1.29-9.33a4.91,4.91,0,0,1,3.23-2.25c2.73-.61,6.08.53,8.19,1.93a28.42,28.42,0,0,1,2.51,2c4.08,3.47,7.93,6.4,10.22,4.11a1.79,1.79,0,0,0,.52-1.46c-.15-3.43-6.15-9.15-8.45-11.07a.68.68,0,0,1-.12-.12c-.27-.31-6.55-7.75-2-12.35a5.94,5.94,0,0,1,4.12-2c2.52,0,4.56,2.15,6.93,4.6l1.37,1.41a52.65,52.65,0,0,1,4,4.7c2.18,2.81,5.47,7,6.79,6.17S94.29,62,92,56.61a6.47,6.47,0,0,1,.09-5,5,5,0,0,1,3.63-2.41c5.7-1.14,8.07.42,10.15,6.67.52,1.55,1,3.39,1.56,5.34,1,3.56,3,11,4.49,11,1.87,0,3-.67,3-10s4.12-17,9-17c4.66,0,6,1.57,6,7V73.11c.31,1.38,3,13.44,3,22.11a40.87,40.87,0,0,1-1.12,9.38c-.58,2.68-.92,4.3,0,6.18l6,12a1,1,0,0,1-.45,1.34,1,1,0,0,1-1.34-.45l-6-12c-1.26-2.51-.78-4.71-.18-7.49a39.76,39.76,0,0,0,1.07-9c0-8.78-2.94-21.64-3-21.77a.91.91,0,0,1,0-.23v-21c0-4.57-.71-5-4-5s-7,6.55-7,15-.72,12-5,12c-2.8,0-4.29-4.7-6.42-12.44-.53-1.92-1-3.74-1.53-5.24-1.87-5.63-3.44-6.22-7.85-5.34a3.1,3.1,0,0,0-2.27,1.4,4.48,4.48,0,0,0,0,3.25c1.24,3,5.05,12.93,1.63,15.2C92.65,73,89.43,68.83,86,64.45a52.87,52.87,0,0,0-3.79-4.52c-.48-.48-.94-1-1.39-1.43-2.06-2.13-3.83-4-5.51-4a4,4,0,0,0-2.68,1.42c-3.13,3.13,1.47,8.93,2,9.58,1.2,1,8.88,7.65,9.1,12.46a3.77,3.77,0,0,1-1.1,3c-3.79,3.79-9.29-.9-12.93-4-.93-.79-1.74-1.48-2.33-1.88a9.59,9.59,0,0,0-6.64-1.64,2.91,2.91,0,0,0-1.95,1.33c-2.44,4.06.41,6.43.75,6.69.06,0,10,7,13,9s3.78,4.39,2.34,7.28c-1.07,2.13-4.08.81-7.56-.72a32.06,32.06,0,0,0-4.58-1.76c-2.6-.65-4.06-.66-5.05,0-.83.53-1.39,1.59-1.73,3.26-.68,3.39,6.72,6.9,9.36,7.86a56.36,56.36,0,0,1,20.33,11.2c8.7,7.74,21.43,10.74,21.56,10.77a1,1,0,0,1,.69.59l5,12a1,1,0,0,1-.53,1.31A1.07,1.07,0,0,1,112,142.22Z"/><path class="cls-1" d="M103,129.22c-.29,0-7.25,0-12.37-2.07a81.79,81.79,0,0,0-19.75-4.94,147.56,147.56,0,0,0-15.88-1c-3,0-8-1-8-5a9.91,9.91,0,0,1,10-10h8a1,1,0,1,1,0,2H57a8,8,0,0,0-8,8c0,2.92,5.94,3,6,3a149.15,149.15,0,0,1,16.13,1,83.82,83.82,0,0,1,20.24,5.06c4.76,1.91,11.56,1.93,11.63,1.93a1,1,0,1,1,0,2Z"/><path class="cls-1" d="M57,95.22a1,1,0,0,1-.44-.1L40.76,87.4a6.63,6.63,0,1,1,5.55-12l13.06,5.94a1,1,0,0,1-.83,1.82L45.48,77.18a4.64,4.64,0,1,0-3.87,8.41l15.78,7.73a1,1,0,0,1,.46,1.34A1,1,0,0,1,57,95.22Z"/><path class="cls-1" d="M66,74.22a1,1,0,0,1-.7-.28L49.18,58.18a7.13,7.13,0,0,1-2.13-4.85,6.37,6.37,0,0,1,1.87-4.79,6.45,6.45,0,0,1,4.79-1.86,7.15,7.15,0,0,1,4.84,2.14L72,62.27a1,1,0,0,1,0,1.41,1,1,0,0,1-1.42,0L57.13,50.23a5.22,5.22,0,0,0-3.48-1.55,4.39,4.39,0,0,0-4.6,4.59,5.12,5.12,0,0,0,1.54,3.49L66.65,72.51a1,1,0,0,1,0,1.41A1,1,0,0,1,66,74.22Z"/><path class="cls-1" d="M93.55,59.37a1,1,0,0,1-.92-.61L85.14,41.3a5.17,5.17,0,0,0-2.67-2.73,4.39,4.39,0,0,0-6,2.56A5.21,5.21,0,0,0,76.64,45l5.23,11.87a1,1,0,0,1-1.83.81L74.8,45.74a7.18,7.18,0,0,1-.18-5.29,6.38,6.38,0,0,1,8.65-3.71A7.23,7.23,0,0,1,87,40.51L94.47,58a1,1,0,0,1-.53,1.32A1.09,1.09,0,0,1,93.55,59.37Z"/><path class="cls-1" d="M116,63.22a1,1,0,0,1-1-.8l-3.32-16.64a4.64,4.64,0,1,0-9.06,1.9l.35,2.4a1,1,0,0,1-.85,1.13,1,1,0,0,1-1.13-.84L100.63,48a6.63,6.63,0,1,1,13-2.65L116.93,62a1,1,0,0,1-.78,1.17A.68.68,0,0,1,116,63.22Z"/><path class="cls-1" d="M143,111.22a1,1,0,0,1-.45-.1l-12-6a1,1,0,0,1-.44-1.34,1,1,0,0,1,1.34-.45l12,6a1,1,0,0,1-.45,1.89Z"/><path class="cls-1" d="M136.83,100.38a11.33,11.33,0,0,1-2.08-.18A1,1,0,0,1,134,99a1,1,0,0,1,1.18-.79s4.37.83,6-1.57c1.73-2.6.87-6.17.86-6.2a4.31,4.31,0,0,0-4-3.25,1,1,0,0,1,0-2,6.25,6.25,0,0,1,6,4.76c.05.18,1.08,4.47-1.14,7.8C141.33,100,138.69,100.38,136.83,100.38Z"/><path class="cls-1" d="M138.19,87.52a1.19,1.19,0,0,1-.12-2.38c.06,0,5.56-.59,6.72-3.83,1.22-3.41-.91-7-.93-7.08A5.26,5.26,0,0,0,138,72.05a1.19,1.19,0,0,1-1.48-.82,1.21,1.21,0,0,1,.82-1.48,7.61,7.61,0,0,1,8.6,3.25c.11.19,2.74,4.62,1.13,9.11-1.67,4.67-8.45,5.38-8.73,5.41Z"/><path class="cls-1" d="M135,74.46a1.2,1.2,0,0,1-.72-2.16c1.77-1.33,3.8-3.73,3.7-6.14a6.78,6.78,0,0,0-3.78-5.68,9.42,9.42,0,0,0-4.37,0,1.18,1.18,0,0,1-1.45-.86,1.21,1.21,0,0,1,.87-1.46,11.64,11.64,0,0,1,5.7.07l.13,0a9.15,9.15,0,0,1,5.29,7.81c.18,4.3-3.84,7.55-4.65,8.16A1.2,1.2,0,0,1,135,74.46Z"/><path class="cls-1" d="M81.43,136.54a10.3,10.3,0,0,1-6.74-2.29c-3.14-2.82-1.32-8.07-1.24-8.29a1,1,0,1,1,1.88.67s-1.45,4.21.7,6.14c2.32,2.09,6,1.75,6,1.74A4.3,4.3,0,0,0,85.83,131a1,1,0,0,1,2,.29,6.25,6.25,0,0,1-5.57,5.22A5.93,5.93,0,0,1,81.43,136.54Z"/><path class="cls-1" d="M94.11,141.79a9.56,9.56,0,0,1-4.53-1.07c-4.38-2.32-4.1-9.13-4.09-9.42a1.2,1.2,0,0,1,2.39.12c0,.05-.22,5.58,2.82,7.19,3.2,1.7,7.1.12,7.13.1a5.24,5.24,0,0,0,3-5.51,1.2,1.2,0,1,1,2.37-.32,7.62,7.62,0,0,1-4.45,8A13.28,13.28,0,0,1,94.11,141.79Z"/><path class="cls-1" d="M34.83,68.34a1,1,0,0,1-.54-.16A35.27,35.27,0,0,1,23.85,57.76c-6.16-9.44-8-15.14-9-18.55-.19-.63-.36-1.17-.53-1.62a1,1,0,0,1,1.88-.69c.17.48.35,1.05.56,1.71,1,3.31,2.78,8.85,8.79,18a33.36,33.36,0,0,0,9.85,9.84,1,1,0,0,1-.54,1.84Z"/><path class="cls-1" d="M13.64,48.42h-.08a1,1,0,0,1-.92-1.08l.9-12.05a1,1,0,0,1,1.71-.62l8.49,8.6a1,1,0,1,1-1.43,1.41l-6.94-7-.74,9.85A1,1,0,0,1,13.64,48.42Z"/><path class="cls-1" d="M45.68,44.15a1,1,0,0,1-.82-.43c-.3-.41-.61-.92-1-1.51C42,39.28,39,34.36,30.79,27A33.16,33.16,0,0,0,18,19.73a1,1,0,0,1-.67-1.24,1,1,0,0,1,1.25-.67A35.19,35.19,0,0,1,32.14,25.5c8.35,7.57,11.53,12.63,13.43,15.65.35.56.65,1,.93,1.43a1,1,0,0,1-.82,1.57Z"/><path class="cls-1" d="M46.82,45.79a.94.94,0,0,1-.51-.14L35.92,39.48a1,1,0,0,1,1-1.72l8.5,5.05-1.78-9.72a1,1,0,1,1,2-.36L47.8,44.61a1,1,0,0,1-.41,1A1.06,1.06,0,0,1,46.82,45.79Z"/></g></svg>