<svg xmlns="http://www.w3.org/2000/svg" viewBox="0 0 160 160"><defs><style>.cls-1{fill:#fff;}</style></defs><title>hands</title><g id="Layer_2" data-name="Layer 2"><path class="cls-1" d="M120.39,97.56a6.5,6.5,0,1,1,6.5-6.5A6.51,6.51,0,0,1,120.39,97.56Zm0-11a4.5,4.5,0,1,0,4.5,4.5A4.5,4.5,0,0,0,120.39,86.56Z"/><path class="cls-1" d="M118.27,91.63a1,1,0,0,1-1-1,2.7,2.7,0,0,1,2.7-2.69,1,1,0,0,1,0,2,.7.7,0,0,0-.7.69A1,1,0,0,1,118.27,91.63Z"/><path class="cls-1" d="M39.39,107.56a6.5,6.5,0,1,1,6.5-6.5A6.51,6.51,0,0,1,39.39,107.56Zm0-11a4.5,4.5,0,1,0,4.5,4.5A4.5,4.5,0,0,0,39.39,96.56Z"/><path class="cls-1" d="M37.27,101.63a1,1,0,0,1-1-1A2.7,2.7,0,0,1,39,97.94a1,1,0,0,1,0,2,.7.7,0,0,0-.7.69A1,1,0,0,1,37.27,101.63Z"/><path class="cls-1" d="M101.39,36.56a6.5,6.5,0,1,1,6.5-6.5A6.51,6.51,0,0,1,101.39,36.56Zm0-11a4.5,4.5,0,1,0,4.5,4.5A4.5,4.5,0,0,0,101.39,25.56Z"/><path class="cls-1" d="M99.27,30.63a1,1,0,0,1-1-1,2.7,2.7,0,0,1,2.7-2.69,1,1,0,0,1,0,2,.7.7,0,0,0-.7.69A1,1,0,0,1,99.27,30.63Z"/><path class="cls-1" d="M117.89,140.56a1,1,0,0,1-.92-.62l-4.81-11.53c-2.53-.65-13.75-3.83-21.93-11.11a55.52,55.52,0,0,0-19.6-10.78c-1.29-.46-11.86-4.48-10.72-10.16.45-2.23,1.3-3.72,2.62-4.56,1.86-1.17,4.27-.8,6.6-.21A31.48,31.48,0,0,1,74,93.46c1.64.72,4.39,1.93,5,1.62.78-1.6.81-3-1.69-4.69-3-2-12.92-9-13-9-1.66-1.25-4-4.77-1.29-9.34a4.91,4.91,0,0,1,3.23-2.25c2.73-.61,6.08.53,8.18,1.93.7.47,1.54,1.19,2.52,2,4.08,3.47,7.93,6.4,10.22,4.11a1.77,1.77,0,0,0,.52-1.45c-.15-3.43-6.15-9.16-8.45-11.08l-.12-.11c-.27-.32-6.55-7.76-1.95-12.36a5.8,5.8,0,0,1,4.08-2h0c2.52,0,4.56,2.15,6.93,4.6.44.46.9.94,1.37,1.41a54.32,54.32,0,0,1,3.94,4.71c2.19,2.8,5.48,7,6.8,6.16s-.11-7.35-2.37-12.78a6.47,6.47,0,0,1,.09-5,5,5,0,0,1,3.63-2.4c5.7-1.14,8.07.41,10.15,6.66.52,1.55,1,3.39,1.56,5.34,1,3.56,3,11,4.49,11,1.87,0,3-.68,3-10s4.12-17,9-17c4.65,0,6,1.57,6,7V71.44c.31,1.38,3,13.45,3,22.12a40.84,40.84,0,0,1-1.12,9.37c-.58,2.68-.93,4.3,0,6.18l6,12a1,1,0,0,1-.44,1.34A1,1,0,0,1,142,122l-6-12c-1.26-2.51-.79-4.71-.19-7.49a39.07,39.07,0,0,0,1.08-9c0-8.79-2.94-21.65-3-21.78a.83.83,0,0,1,0-.22v-21c0-4.57-.71-5-4-5s-7,6.55-7,15c0,8.29-.72,12-5,12-2.8,0-4.29-4.71-6.42-12.45-.53-1.92-1-3.74-1.53-5.24-1.87-5.62-3.44-6.22-7.85-5.33a3,3,0,0,0-2.27,1.4,4.45,4.45,0,0,0,0,3.24c1.24,3,5,12.93,1.62,15.21-2.85,1.9-6.07-2.23-9.47-6.6a51.6,51.6,0,0,0-3.79-4.53c-.48-.48-.94-1-1.39-1.43-2.06-2.13-3.83-4-5.51-4a3.85,3.85,0,0,0-2.68,1.42c-3.13,3.13,1.47,8.94,2,9.59,1.2,1,8.88,7.64,9.1,12.46a3.79,3.79,0,0,1-1.1,3c-3.79,3.8-9.3-.89-12.93-4-.94-.79-1.74-1.47-2.33-1.87a9.49,9.49,0,0,0-6.64-1.64,2.87,2.87,0,0,0-2,1.32c-2.44,4.07.41,6.43.74,6.69.07,0,10,7,13,9s3.79,4.4,2.34,7.28c-1.06,2.14-4.07.82-7.55-.71a30.91,30.91,0,0,0-4.58-1.76c-2.6-.65-4.06-.66-5.05,0a4.73,4.73,0,0,0-1.73,3.26c-.68,3.4,6.72,6.9,9.36,7.87a56.35,56.35,0,0,1,20.32,11.19c8.71,7.74,21.44,10.74,21.57,10.77a1,1,0,0,1,.69.59l5,12a1,1,0,0,1-.92,1.39Z"/><path class="cls-1" d="M108.89,127.56c-.29,0-7.25,0-12.37-2.08a81.42,81.42,0,0,0-19.75-4.93,147.56,147.56,0,0,0-15.88-1c-3,0-8-1.06-8-5a9.9,9.9,0,0,1,10-10h8a1,1,0,0,1,0,2h-8a7.94,7.94,0,0,0-8,8c0,2.91,5.94,3,6,3a150.53,150.53,0,0,1,16.12,1,83.2,83.2,0,0,1,20.25,5.07c4.76,1.9,11.56,1.93,11.63,1.93a1,1,0,0,1,0,2Z"/><path class="cls-1" d="M62.89,93.56a1,1,0,0,1-.44-.11L46.7,85.73A7.14,7.14,0,0,1,43,81.94,6.37,6.37,0,0,1,47,73.39a7.12,7.12,0,0,1,5.28.31l13,6A1,1,0,0,1,65.8,81a1,1,0,0,1-1.32.5l-13.07-6a5.15,5.15,0,0,0-3.81-.24,4.39,4.39,0,0,0-2.71,5.91,5.18,5.18,0,0,0,2.66,2.73l15.78,7.74A1,1,0,0,1,63.79,93,1,1,0,0,1,62.89,93.56Z"/><path class="cls-1" d="M71.89,72.56a1,1,0,0,1-.7-.29L55.12,56.52a6.64,6.64,0,1,1,9.37-9.37L77.91,60.6a1,1,0,0,1,0,1.41,1,1,0,0,1-1.42,0L63.07,48.56a4.64,4.64,0,1,0-6.54,6.54L72.59,70.84a1,1,0,0,1,0,1.42A1,1,0,0,1,71.89,72.56Z"/><path class="cls-1" d="M99.49,57.7a1,1,0,0,1-.92-.61L91.08,39.63a4.84,4.84,0,0,0-6.22-2.77,4.4,4.4,0,0,0-2.42,2.61,5.18,5.18,0,0,0,.14,3.81l5.23,11.87A1,1,0,0,1,86,56L80.74,44.08a7.18,7.18,0,0,1-.18-5.29A6.41,6.41,0,0,1,84.07,35a6.84,6.84,0,0,1,8.85,3.82l7.49,17.47a1,1,0,0,1-.53,1.31A1.09,1.09,0,0,1,99.49,57.7Z"/><path class="cls-1" d="M121.89,61.56a1,1,0,0,1-1-.81l-3.33-16.64a4.64,4.64,0,1,0-9,1.91l.35,2.39a1,1,0,1,1-2,.29l-.34-2.34a6.63,6.63,0,1,1,13-2.65l3.33,16.65a1,1,0,0,1-.78,1.18Z"/><path class="cls-1" d="M148.89,109.56a1.06,1.06,0,0,1-.45-.11l-12-6a1,1,0,0,1-.44-1.34,1,1,0,0,1,1.34-.45l12,6a1,1,0,0,1-.45,1.9Z"/><path class="cls-1" d="M142.77,98.72a12.45,12.45,0,0,1-2.08-.18,1,1,0,0,1,.39-2s4.38.83,6-1.57c1.73-2.6.87-6.17.86-6.2a4.31,4.31,0,0,0-4-3.24,1,1,0,0,1,0-2,6.26,6.26,0,0,1,6,4.75c0,.18,1.08,4.47-1.14,7.8C147.27,98.29,144.63,98.72,142.77,98.72Z"/><path class="cls-1" d="M144.13,85.85a1.19,1.19,0,0,1-.12-2.38c.06,0,5.56-.59,6.72-3.83,1.22-3.41-.91-7-.93-7.07a5.24,5.24,0,0,0-5.89-2.18,1.2,1.2,0,0,1-.66-2.3,7.62,7.62,0,0,1,8.6,3.24c.11.19,2.74,4.63,1.13,9.12-1.67,4.67-8.45,5.37-8.73,5.4Z"/><path class="cls-1" d="M140.92,72.79a1.19,1.19,0,0,1-.72-2.15c1.77-1.33,3.8-3.74,3.7-6.15a6.78,6.78,0,0,0-3.78-5.68,9.48,9.48,0,0,0-4.37,0,1.2,1.2,0,1,1-.58-2.32,11.57,11.57,0,0,1,5.7.06l.13,0a9.19,9.19,0,0,1,5.29,7.81c.18,4.3-3.84,7.55-4.65,8.16A1.22,1.22,0,0,1,140.92,72.79Z"/><path class="cls-1" d="M87.37,134.87a10.29,10.29,0,0,1-6.74-2.29c-3.14-2.82-1.32-8.07-1.24-8.29a1,1,0,1,1,1.88.67s-1.45,4.21.7,6.14c2.31,2.07,6,1.75,6,1.75s3.34-.41,3.79-3.52a1,1,0,0,1,2,.28,6.25,6.25,0,0,1-5.57,5.23S87.84,134.87,87.37,134.87Z"/><path class="cls-1" d="M100.05,140.13a9.65,9.65,0,0,1-4.53-1.07c-4.38-2.33-4.1-9.14-4.09-9.43a1.2,1.2,0,0,1,2.39.12c0,.05-.22,5.58,2.82,7.19s7.09.12,7.13.1a5.24,5.24,0,0,0,3-5.51,1.2,1.2,0,0,1,2.37-.32,7.61,7.61,0,0,1-4.45,8A13.17,13.17,0,0,1,100.05,140.13Z"/><path class="cls-1" d="M43,65a1,1,0,0,1-.66-.25,37.29,37.29,0,0,1-11-16.1c-4.28-13.09-3.48-20.1-3-24.29.08-.76.16-1.43.18-2a1,1,0,0,1,1-1,1,1,0,0,1,1,1c0,.62-.11,1.31-.2,2.12-.46,4-1.23,10.76,2.92,23.44A35.42,35.42,0,0,0,43.64,63.28,1,1,0,0,1,43,65Z"/><path class="cls-1" d="M34,32.63a1,1,0,0,1-.92-.62l-3.75-9.15-4.43,8.83a1,1,0,0,1-1.34.45,1,1,0,0,1-.45-1.34L28.51,20a1,1,0,0,1,.93-.56,1,1,0,0,1,.89.63l4.58,11.18A1,1,0,0,1,34,32.63Z"/><path class="cls-1" d="M50.9,58a1,1,0,0,1-.76-.35A35.34,35.34,0,0,0,35.2,46.79c-12.57-4.48-19.32-3.88-23.36-3.53-.81.07-1.51.13-2.13.14h0a1,1,0,0,1,0-2c.54,0,1.21-.07,2-.13,4.2-.37,11.23-1,24.21,3.64a37.34,37.34,0,0,1,15.8,11.43A1,1,0,0,1,50.9,58Z"/><path class="cls-1" d="M18.76,48.15a1.15,1.15,0,0,1-.41-.08L7.29,43.2a1,1,0,0,1-.59-.91,1,1,0,0,1,.57-.91l10.94-5.13a1,1,0,1,1,.85,1.81l-8.95,4.19,9.05,4a1,1,0,0,1-.4,1.91Z"/></g></svg>