<svg xmlns="http://www.w3.org/2000/svg" viewBox="0 0 160 160"><defs><style>.cls-1{fill:#fff;}</style></defs><title>hands</title><g id="Layer_2" data-name="Layer 2"><path class="cls-1" d="M104.75,81.28h-14a1,1,0,0,1,0-2h14a5,5,0,0,0,0-10h-14a1,1,0,0,1,0-2h14a7,7,0,0,1,0,14Z"/><path class="cls-1" d="M100.25,92.53H91.82a1,1,0,0,1,0-2h8.43a4.64,4.64,0,1,0,0-9.25h-2a1,1,0,0,1,0-2h2a6.64,6.64,0,1,1,0,13.25Z"/><path class="cls-1" d="M94.25,103.78H54.75c-.35,0-7.83-.29-12.45-2.6a18.5,18.5,0,0,1-8.19-7.9H12.75a1,1,0,0,1,0-2h22a1,1,0,0,1,.93.63,16.28,16.28,0,0,0,7.52,7.48c4.22,2.11,11.51,2.39,11.59,2.4H94.25a4.64,4.64,0,1,0,0-9.25h-10a1,1,0,0,1,0-2h10a6.64,6.64,0,1,1,0,13.25Z"/><path class="cls-1" d="M33.75,63.28h-21a1,1,0,0,1,0-2H33.16A42.9,42.9,0,0,1,40,52.58c.26-.3,7.43-8.36,16.78-8.36h19c.26,0,6.54.05,9.8,4.4,3.11,4.14,3.2,6.36,3.2,6.6a1,1,0,0,1-2,0h0s-.12-1.83-2.8-5.4-8.15-3.6-8.2-3.6h-19c-8.43,0-15.25,7.65-15.32,7.72a39.24,39.24,0,0,0-6.86,8.79A1,1,0,0,1,33.75,63.28Z"/><path class="cls-1" d="M147.25,68.72H130.18a1,1,0,0,1,0-2h17.07a1,1,0,0,1,0,2Z"/><path class="cls-1" d="M113.9,59.49l-.26,0a43.68,43.68,0,0,0-8.43-1.25h-2.39a1,1,0,0,1,0-2h2.43a44,44,0,0,1,8.92,1.3,1,1,0,0,1-.27,2Z"/><path class="cls-1" d="M103.18,115.78h-19c-.26,0-6.54,0-9.8-4.4-3.11-4.14-3.2-6.36-3.2-6.6a1,1,0,0,1,2,0h0s.12,1.83,2.8,5.4,8.15,3.6,8.2,3.6h19c8.43,0,15.25-7.65,15.32-7.72a39.24,39.24,0,0,0,6.86-8.79,1,1,0,0,1,.89-.55h21a1,1,0,0,1,0,2H126.84a42.9,42.9,0,0,1-6.88,8.7C119.7,107.72,112.53,115.78,103.18,115.78Z"/><path class="cls-1" d="M99.25,69.28H90.82a1,1,0,0,1,0-2h8.43a5,5,0,0,0,0-10h-29a1,1,0,0,1,0-2h29a7,7,0,0,1,0,14Z"/><path class="cls-1" d="M56.23,69.65a1.07,1.07,0,0,1-.25,0,1,1,0,0,1-.72-1.21l2.41-9.59-8.81,4.49a1,1,0,0,1-.9-1.79L58.73,56a1,1,0,0,1,1.42,1.14L57.2,68.9A1,1,0,0,1,56.23,69.65Z"/><path class="cls-1" d="M60.27,94.53a.91.91,0,0,1-.45-.11L49.05,88.94A1,1,0,1,1,50,87.16l8.8,4.48-2.41-9.58a1,1,0,0,1,.72-1.21,1,1,0,0,1,1.22.72l3,11.72a1,1,0,0,1-.35,1A1,1,0,0,1,60.27,94.53Z"/><path class="cls-1" d="M58.82,92.22a1,1,0,0,1-.35-.07c-.35-.13-8.65-3.39-8.65-15.93,0-12.38,7.12-17.6,7.42-17.82a1,1,0,0,1,1.39.23A1,1,0,0,1,58.4,60c-.07,0-6.58,4.9-6.58,16.19s7.28,14,7.35,14.06a1,1,0,0,1,.59,1.29A1,1,0,0,1,58.82,92.22Z"/><path class="cls-1" d="M118.5,94.53a1,1,0,0,1-1-1.24l3-11.72a1,1,0,0,1,1.22-.72,1,1,0,0,1,.72,1.21L120,91.64l8.81-4.48a1,1,0,1,1,.9,1.78L119,94.42A1,1,0,0,1,118.5,94.53Z"/><path class="cls-1" d="M120.36,69.65a1,1,0,0,1-1-.75l-3-11.72a1,1,0,0,1,.35-1,1,1,0,0,1,1.07-.11l10.77,5.48a1,1,0,0,1,.44,1.35,1,1,0,0,1-1.34.44l-8.81-4.49,2.41,9.59a1,1,0,0,1-.72,1.21Z"/><path class="cls-1" d="M119.86,92.25a1,1,0,0,1-.81-.42,1,1,0,0,1,.23-1.39c.07,0,6.58-4.9,6.58-16.19s-7.28-14-7.35-14.06a1,1,0,0,1-.59-1.29,1,1,0,0,1,1.29-.58c.35.13,8.65,3.39,8.65,15.93,0,12.38-7.11,17.6-7.42,17.82A1,1,0,0,1,119.86,92.25Z"/></g></svg>