<svg xmlns="http://www.w3.org/2000/svg" viewBox="0 0 160 160"><defs><style>.cls-1{fill:#fff;}</style></defs><title>hands</title><g id="Layer_2" data-name="Layer 2"><path class="cls-1" d="M65.24,81.38a1,1,0,0,1-1-1l0-9a5,5,0,0,0-5-5h0a5,5,0,0,0-5,5l0,7a1,1,0,0,1-1,1h0a1,1,0,0,1-1-1l0-7a7,7,0,0,1,7-7h0a7,7,0,0,1,7,7l0,9a1,1,0,0,1-1,1Z"/><path class="cls-1" d="M42,79.43a1,1,0,0,1-1-1l0-5.53A7.15,7.15,0,0,1,42.87,68a6.43,6.43,0,0,1,4.71-2.08h0a6.82,6.82,0,0,1,6.63,6.85c0,.05,0,.1,0,.15a1,1,0,0,1-1,1h0a1,1,0,0,1-1-1,4.84,4.84,0,0,0-4.63-5h0a4.43,4.43,0,0,0-3.25,1.45A5.16,5.16,0,0,0,43,72.9l0,5.52a1,1,0,0,1-1,1Z"/><path class="cls-1" d="M41.3,140.4a1,1,0,0,1-1-1l0-16.61a18.4,18.4,0,0,1-7.9-8.18c-1.69-3.36-2.3-8.27-2.52-10.89a1,1,0,0,1,.92-1.08,1,1,0,0,1,1.07.91c.17,2,.73,7,2.32,10.17a16.34,16.34,0,0,0,7.48,7.51,1,1,0,0,1,.63.93l0,17.24a1,1,0,0,1-1,1Z"/><path class="cls-1" d="M30.76,92.43a1,1,0,0,1-1-1l0-12.52A7.19,7.19,0,0,1,31.63,74a6.46,6.46,0,0,1,4.71-2.08h0a6.78,6.78,0,0,1,6.58,6.18,1,1,0,0,1,.07.39l0,.47a1,1,0,0,1-1,1,1,1,0,0,1-1-1,4.83,4.83,0,0,0-4.63-5h0a4.48,4.48,0,0,0-3.25,1.45,5.21,5.21,0,0,0-1.37,3.56l0,12.52a1,1,0,0,1-1,1Z"/><path class="cls-1" d="M71.3,140.37a1,1,0,0,1-1-1v-8.89a8.28,8.28,0,0,1,2.62-6.06c9.48-8.76,22.08-16.74,22.61-17.08a1.24,1.24,0,0,1,.23-.12,106.06,106.06,0,0,0,11-5.58c.67-.49,2.55-2.15,2.54-3.63a2.25,2.25,0,0,0-1.18-1.78c-1.94-1.36-4.61-1.32-6.21-1.3h-.15a4.12,4.12,0,0,0-1.85.46c-3.65,1.85-12.76,5.82-18.37,2.71A9.72,9.72,0,0,1,76.26,91l-.05-15.08a5,5,0,0,0-5-5h0a5,5,0,0,0-5,4.77v.26a1,1,0,0,1-2,0v-.31l0-.71a.91.91,0,0,1,.14-.49,7,7,0,0,1,6.83-5.5h0a7,7,0,0,1,7,7l0,15a7.83,7.83,0,0,0,4.21,5.49c4.9,2.72,13.87-1.42,16.5-2.75a6.28,6.28,0,0,1,2.72-.67h.15c1.72,0,4.92-.07,7.39,1.66a4.13,4.13,0,0,1,2,3.42c0,2.77-3.08,5-3.43,5.29A101.22,101.22,0,0,1,96.59,109c-.53.34-13,8.22-22.32,16.86a6.27,6.27,0,0,0-2,4.59v8.89a1,1,0,0,1-1,1Z"/><path class="cls-1" d="M93.83,66.94a1,1,0,0,1-1-.77l-8.94-38A7,7,0,1,1,97.54,25l8.94,38a1,1,0,1,1-1.94.46l-8.94-38a5,5,0,0,0-9.74,2.29l8.94,38a1,1,0,0,1-.74,1.2A.91.91,0,0,1,93.83,66.94Z"/><path class="cls-1" d="M117.26,65a1,1,0,0,1-1-.77L108,29.2a4.64,4.64,0,1,0-9,2.12l4.36,18.5a1,1,0,0,1-2,.46l-4.35-18.5a6.63,6.63,0,1,1,12.89-3l8.26,35a1,1,0,0,1-.75,1.21A.86.86,0,0,1,117.26,65Z"/><path class="cls-1" d="M131.64,122.76a1,1,0,0,1-1-.77l-3-12.66a1,1,0,0,1,.4-1,16.21,16.21,0,0,0,5.56-9c1.08-4.59-.32-11.75-.33-11.83L122.2,40.25A5.2,5.2,0,0,0,120,37.1a4.44,4.44,0,0,0-3.49-.66,4.84,4.84,0,0,0-3.36,5.93l4.36,18.49a1,1,0,1,1-2,.46l-4.35-18.49a6.81,6.81,0,0,1,4.84-8.33,6.39,6.39,0,0,1,5.06.94,7.14,7.14,0,0,1,3,4.35L135.26,87c.07.34,1.51,7.69.32,12.71a18.45,18.45,0,0,1-5.8,9.78l2.83,12a1,1,0,0,1-.74,1.2Z"/><path class="cls-1" d="M84.4,83.73a1,1,0,0,1-.53-.15c-2.54-1.57-7.2-9.21-7.73-10.08a1,1,0,0,1,.34-1.37,1,1,0,0,1,1.37.34c2,3.23,5.46,8.41,7.07,9.41a1,1,0,0,1-.52,1.85Z"/><path class="cls-1" d="M102.44,129.64a1,1,0,0,1-1-.77l-2.61-11.11a42,42,0,0,1-9.42-4.32,1,1,0,1,1,1-1.71A38,38,0,0,0,99.92,116a1,1,0,0,1,.74.75l2.75,11.68a1,1,0,0,1-.74,1.2Z"/><path class="cls-1" d="M85.48,83.8h-.07l-1.08-.07a1,1,0,0,1-.93-1.07,1,1,0,0,1,.8-.91L73.5,36.31A7,7,0,1,1,87.12,33.1l5,21.42a1,1,0,1,1-2,.45l-5-21.41a5,5,0,0,0-9.74,2.29l11,46.72a1,1,0,0,1-.21.88A1,1,0,0,1,85.48,83.8Z"/><path class="cls-1" d="M77.53,133.63a6.84,6.84,0,0,1-3.79-1c-2.62-1.75-1.85-5.75-1.82-5.92a1,1,0,0,1,1.18-.78,1,1,0,0,1,.78,1.17h0s-.51,2.87,1,3.86a5.82,5.82,0,0,0,4.09.56A2.66,2.66,0,0,0,81,129a1,1,0,0,1,2,0,4.67,4.67,0,0,1-3.55,4.46A8.18,8.18,0,0,1,77.53,133.63Z"/><path class="cls-1" d="M87,135.84a6.47,6.47,0,0,1-2.2-.37c-3.35-1.2-3.86-6-3.88-6.23a1,1,0,0,1,.9-1.09,1,1,0,0,1,1.09.89c.11,1.05.77,3.91,2.57,4.55a6.3,6.3,0,0,0,4.79-.64A3.51,3.51,0,0,0,91.7,129a1,1,0,0,1,.68-1.23,1,1,0,0,1,1.24.68,5.5,5.5,0,0,1-2.34,6.19A9.16,9.16,0,0,1,87,135.84Z"/><path class="cls-1" d="M95.83,130.82c-2.89,0-5-2.53-5.62-3.32a1,1,0,0,1,1.6-1.2c.2.27,2,2.59,4.15,2.52a4.53,4.53,0,0,0,3.81-2.54,6.39,6.39,0,0,0,0-3,1,1,0,1,1,1.94-.48,8.27,8.27,0,0,1,0,4.07l0,.1a6.56,6.56,0,0,1-5.6,3.79Z"/><path class="cls-1" d="M74.77,57.19a1,1,0,0,1-1-.94,6,6,0,0,1,3.89-5.93,1,1,0,0,1,.77,1.85,4,4,0,0,0-2.67,4,1,1,0,0,1-.93,1.06Z"/><path class="cls-1" d="M60.06,58.41a1,1,0,0,1-1-.66,7.2,7.2,0,0,1,2.55-8.29c.17-.12,4.22-2.87,8.57-1.61s5.56,7.68,5.61,7.95a1,1,0,0,1-2,.31s-.91-5.4-4.19-6.34c-3.44-1-6.84,1.31-6.87,1.34a5.19,5.19,0,0,0-1.8,6,1,1,0,0,1-.61,1.28A1,1,0,0,1,60.06,58.41Z"/><path class="cls-1" d="M48,67.38a1,1,0,0,1-1-.77,11.87,11.87,0,0,1,0-5.34.49.49,0,0,1,0-.11,10.18,10.18,0,0,1,7.62-6C59,54.49,62.39,58.22,63,59a1,1,0,0,1-.13,1.41,1,1,0,0,1-1.4-.12c-.52-.61-3.24-3.64-6.5-3.15a8.19,8.19,0,0,0-6,4.74,10,10,0,0,0,0,4.3,1,1,0,0,1-.74,1.2Z"/><path class="cls-1" d="M112.45,86.43a6.5,6.5,0,1,1,6.5-6.5A6.51,6.51,0,0,1,112.45,86.43Zm0-11a4.5,4.5,0,1,0,4.5,4.5A4.51,4.51,0,0,0,112.45,75.43Z"/><path class="cls-1" d="M114.57,80.51a1,1,0,0,1-1-1,.7.7,0,0,0-.7-.7,1,1,0,0,1,0-2,2.7,2.7,0,0,1,2.7,2.7A1,1,0,0,1,114.57,80.51Z"/><path class="cls-1" d="M38.45,55.43a6.5,6.5,0,1,1,6.5-6.5A6.51,6.51,0,0,1,38.45,55.43Zm0-11a4.5,4.5,0,1,0,4.5,4.5A4.51,4.51,0,0,0,38.45,44.43Z"/><path class="cls-1" d="M40.57,49.51a1,1,0,0,1-1-1,.7.7,0,0,0-.7-.7,1,1,0,0,1,0-2,2.7,2.7,0,0,1,2.7,2.7A1,1,0,0,1,40.57,49.51Z"/><path class="cls-1" d="M30.45,104.43a6.5,6.5,0,1,1,6.5-6.5A6.51,6.51,0,0,1,30.45,104.43Zm0-11a4.5,4.5,0,1,0,4.5,4.5A4.51,4.51,0,0,0,30.45,93.43Z"/><path class="cls-1" d="M32.57,98.51a1,1,0,0,1-1-1,.7.7,0,0,0-.7-.7,1,1,0,0,1,0-2,2.7,2.7,0,0,1,2.7,2.7A1,1,0,0,1,32.57,98.51Z"/></g></svg>