<svg xmlns="http://www.w3.org/2000/svg" viewBox="0 0 160 160"><defs><style>.cls-1{fill:#fff;}</style></defs><title>hands</title><g id="Layer_2" data-name="Layer 2"><path class="cls-1" d="M79.33,52.9a1,1,0,0,1-.33-.06,1,1,0,0,1-.61-1.28L91.25,14.75a5,5,0,1,0-9.44-3.3L68.94,48.26a1,1,0,1,1-1.88-.66L79.93,10.79a7,7,0,1,1,13.21,4.62L80.27,52.22A1,1,0,0,1,79.33,52.9Z"/><path class="cls-1" d="M88.79,59.91a1,1,0,0,1-.33-.06,1,1,0,0,1-.61-1.27l11.88-34A4.64,4.64,0,1,0,91,21.54L84.73,39.48a1,1,0,0,1-1.89-.66l6.27-17.94a6.64,6.64,0,1,1,12.51,4.38l-11.88,34A1,1,0,0,1,88.79,59.91Z"/><path class="cls-1" d="M96.66,71.5a1,1,0,0,1-.33-.06,1,1,0,0,1-.61-1.27l10-28.65A4.82,4.82,0,0,0,103,35.28a4.44,4.44,0,0,0-3.54.29A5.14,5.14,0,0,0,97,38.47L90.73,56.41a1,1,0,0,1-1.89-.66l6.27-17.94a7.11,7.11,0,0,1,3.44-4,6.38,6.38,0,0,1,5.12-.41,6.84,6.84,0,0,1,4,8.8l-10,28.64A1,1,0,0,1,96.66,71.5Z"/><path class="cls-1" d="M34.55,125.43a1,1,0,0,1-.34-.06,1,1,0,0,1-.6-1.28L44.36,94.32A43.19,43.19,0,0,1,38.42,85c-2.29-4.75-2.06-10.23-1.81-16,.1-2.33.2-4.73.15-7.17-.19-8.15.28-21,.32-22.12-.06-.57-.25-3.49,1.62-5,1.28-1,3.12-1.15,5.46-.32C51.4,36.83,51,44.8,51,44.89c0,2.53.07,9.62,1,11.54A10.61,10.61,0,0,0,53,58a1,1,0,1,1-1.61,1.18,11.45,11.45,0,0,1-1.18-1.91C48.92,54.61,49,45.81,49,44.81c0-.31.28-6.59-5.52-8.62-1.13-.39-2.66-.71-3.53,0s-1,2.64-.9,3.29a.86.86,0,0,1,0,.16c0,.14-.51,13.66-.32,22.07.05,2.51,0,5-.15,7.3-.24,5.55-.46,10.79,1.61,15.09a38.51,38.51,0,0,0,6,9.31,1,1,0,0,1,.22,1l-11,30.33A1,1,0,0,1,34.55,125.43Z"/><path class="cls-1" d="M51.89,58.66a1.26,1.26,0,0,1-.33,0,1,1,0,0,1-.62-1.28L66.78,12A7,7,0,1,1,80,16.64L72.74,37.41a1,1,0,0,1-1.89-.66L78.11,16a5,5,0,0,0-9.44-3.3L52.83,58A1,1,0,0,1,51.89,58.66Z"/><path class="cls-1" d="M125.45,141.4a1,1,0,0,1-.45-.1,15.89,15.89,0,0,1-6.44-6.45c-2-4.1-5-24.44-5.1-25.31a.61.61,0,0,1,0-.14c0-.11-.08-11.81-5.83-20.44-1.93-2.9-3.58-5.63-5-8-3.08-5.1-5.5-9.13-8.76-11.74a5.66,5.66,0,0,0-4.13-1.53A4,4,0,0,0,87.25,69a1,1,0,0,1-1.6-1.2,6,6,0,0,1,3.79-2.13,7.5,7.5,0,0,1,5.64,2c3.53,2.83,6,7,9.22,12.27,1.44,2.39,3.07,5.09,5,8,5.92,8.88,6.16,20.35,6.17,21.48.84,5.85,3.32,21.48,4.9,24.63a13.9,13.9,0,0,0,5.55,5.55,1,1,0,0,1-.45,1.89Z"/><path class="cls-1" d="M100.45,90.4a1,1,0,0,1-.91-.58c-.05-.11-5-10.87-7.8-13.71s-12.62-13.58-13-14h0s-3.46-3.34-5.7-1.85a5.93,5.93,0,0,0-2.43,2.7,1,1,0,1,1-1.88-.7,7.81,7.81,0,0,1,3.2-3.66c3.63-2.43,8.07,1.94,8.26,2.13s10,11,13,14,8,13.83,8.2,14.29a1,1,0,0,1-.5,1.32A1,1,0,0,1,100.45,90.4Z"/><path class="cls-1" d="M87.45,90.4a1,1,0,0,1-1-.68c-1.09-3.28-4.43-12.29-6.76-14.61-3-3-11.66-12.63-12-13-.1-.1-3.41-3.3-6.66-.87S59.36,68,59.38,68a1,1,0,1,1-1.86.74c-.79-2-1.32-6.43,2.33-9.17s7.71-.5,9.31,1.1c.12.13,9,10,12,13,3.13,3.13,7.07,14.89,7.24,15.39a1,1,0,0,1-.63,1.26A.89.89,0,0,1,87.45,90.4Z"/><path class="cls-1" d="M98,153.9a1,1,0,0,1-.77-.36c-.05-.06-5-6-7.94-8.93-1-1-2.45-1.51-4.46-2.21a35.8,35.8,0,0,1-13.49-7.75C65,129,62,122.87,59.82,118.38a32.6,32.6,0,0,0-2.67-4.88c-.76-1-1.65-2.09-2.59-3.23-2.88-3.49-5.61-6.79-5.61-9.37,0-3.13,2.62-5,7-5,3.32,0,7.27,3.86,7.71,4.3l7.11,8.68c-.14-1.59-.38-3.85-.81-6.84C69,95.37,58.25,80.64,58.14,80.49c-.51-.6-5.28-6.47-4.14-9.9,1.27-3.8,6.91-2.72,7.15-2.67a1,1,0,0,1,.51.28l11,11c3.18,3.17,5.19,13.09,5.27,13.51a1,1,0,0,1-2,.39c-.54-2.7-2.44-10.21-4.73-12.49L60.47,69.84c-.94-.13-4-.39-4.57,1.38s1.89,5.73,3.82,8c.49.67,11.2,15.34,12.22,22.5a81.57,81.57,0,0,1,1,10.14,1,1,0,0,1-.66.94,1,1,0,0,1-1.11-.3l-9-11C61.14,100.52,58,97.9,56,97.9c-1.5,0-5,.3-5,3,0,1.86,2.74,5.18,5.15,8.1.92,1.1,1.86,2.25,2.65,3.3a32.15,32.15,0,0,1,2.87,5.22c2.1,4.33,5,10.27,11,15.64a34.13,34.13,0,0,0,12.81,7.35c2.18.76,3.9,1.36,5.23,2.69,3,3,7.85,8.82,8.06,9.06a1,1,0,0,1-.13,1.41A1,1,0,0,1,98,153.9Z"/><path class="cls-1" d="M48.31,78.63a1.18,1.18,0,0,1-1.17-1,19.77,19.77,0,0,1,4.08-14.88c1.73-2,3.71-3.09,5.74-3.06a12.85,12.85,0,0,1,2.36.23,1.19,1.19,0,1,1-.44,2.33,11,11,0,0,0-2-.19h0A5.52,5.52,0,0,0,53,64.3a17.24,17.24,0,0,0-3.54,13,1.19,1.19,0,0,1-1,1.37Z"/><path class="cls-1" d="M60.16,94.4c-6.1,0-10.35-7.08-10.55-7.42a1.19,1.19,0,0,1,2-1.21c0,.08,4.51,7.48,9.94,6.07a6.24,6.24,0,0,0,3.09-2.07,1.19,1.19,0,0,1,1.8,1.55,8.51,8.51,0,0,1-4.3,2.82A8,8,0,0,1,60.16,94.4Z"/><path class="cls-1" d="M48.31,78.63h-.05a1.18,1.18,0,0,1-1-.67l-2.94-6a1.17,1.17,0,0,1,.55-1.58,1.19,1.19,0,0,1,1.59.55l2,4.05L50.12,72a1.18,1.18,0,1,1,2,1.2l-2.83,4.83A1.18,1.18,0,0,1,48.31,78.63Z"/></g></svg>