<svg xmlns="http://www.w3.org/2000/svg" viewBox="0 0 160 160"><defs><style>.cls-1{fill:#fff;}</style></defs><title>hands</title><g id="Layer_2" data-name="Layer 2"><path class="cls-1" d="M89,47.82H73a1,1,0,0,1-1-1v-12a17,17,0,0,1,17-17h26a1,1,0,0,1,0,2H89a15,15,0,0,0-15,15v11H88v-11a1,1,0,0,1,1-1h26a1,1,0,0,1,0,2H90v11A1,1,0,0,1,89,47.82Z"/><path class="cls-1" d="M73,75.82a1,1,0,0,1-1-1v-22a1,1,0,1,1,2,0v22A1,1,0,0,1,73,75.82Z"/><path class="cls-1" d="M81,67.82a1,1,0,0,1-1-1v-12a1,1,0,1,1,2,0v12A1,1,0,0,1,81,67.82Z"/><path class="cls-1" d="M89,90.82a1,1,0,0,1-1-1v-37a1,1,0,1,1,2,0v37A1,1,0,0,1,89,90.82Z"/><path class="cls-1" d="M81,87.82a1,1,0,0,1-1-1v-15a1,1,0,0,1,2,0v15A1,1,0,0,1,81,87.82Z"/><path class="cls-1" d="M73,87.82a1,1,0,0,1-1-1v-9a1,1,0,0,1,2,0v9A1,1,0,0,1,73,87.82Z"/><path class="cls-1" d="M38,103.82H26a1,1,0,0,1,0-2H38a1,1,0,0,1,0,2Z"/><path class="cls-1" d="M94,127.82H26a1,1,0,0,1,0-2H93.64l26.07-21.41a2.68,2.68,0,0,0,.81-3A3.5,3.5,0,0,0,117,98.82a7.81,7.81,0,0,0-5.3,1.71.3.3,0,0,1-.08.08l-19,15a1,1,0,0,1-.62.21H68c-2.77,0-8-1.25-8-6,0-3.08,0-6,3-6H75.85c.88-.28,6.15-2.15,6.15-6s-2.88-4-3-4H54c-.07,0-7.6.09-12.23,5.64A15.22,15.22,0,0,0,38,110.66a1,1,0,0,1-2,.33c0-.27-1-6.53,4.22-12.81S53.65,91.82,54,91.82H79c1.73,0,5,1.26,5,6,0,5.69-7.41,7.87-7.73,8a.8.8,0,0,1-.27,0H63c-.84,0-1,.64-1,4,0,4,5.94,4,6,4H91.65l18.7-14.76A9.87,9.87,0,0,1,117,96.82a5.51,5.51,0,0,1,5.39,3.86A4.65,4.65,0,0,1,121,106L94.63,127.59A1,1,0,0,1,94,127.82Z"/><path class="cls-1" d="M83,115.82a1,1,0,0,1-.62-1.78l19-15A9.84,9.84,0,0,1,108,96.82a5.43,5.43,0,0,1,3.64,1.26,1,1,0,1,1-1.3,1.52,3.48,3.48,0,0,0-2.34-.78,7.81,7.81,0,0,0-5.3,1.71.3.3,0,0,1-.08.08l-19,15A1,1,0,0,1,83,115.82Z"/><path class="cls-1" d="M74,115.82a1,1,0,0,1-.62-1.78l19-15A9.84,9.84,0,0,1,99,96.82a5.43,5.43,0,0,1,3.64,1.26,1,1,0,1,1-1.3,1.52A3.48,3.48,0,0,0,99,98.82a7.81,7.81,0,0,0-5.3,1.71.3.3,0,0,1-.08.08l-19,15A1,1,0,0,1,74,115.82Z"/><path class="cls-1" d="M85.27,142.18a8,8,0,0,1-2.13-.28c-4.07-1.13-4.78-6.64-4.81-6.88a1,1,0,0,1,.88-1.11,1,1,0,0,1,1.11.87c0,.05.58,4.42,3.36,5.19,3,.83,6.13-1.1,6.16-1.12A4.3,4.3,0,0,0,91.66,134a1,1,0,1,1,1.9-.62,6.26,6.26,0,0,1-2.66,7.16A11.65,11.65,0,0,1,85.27,142.18Z"/><path class="cls-1" d="M99.58,141.06h-.23c-5-.13-7.74-6.35-7.85-6.62a1.18,1.18,0,0,1,.61-1.57,1.2,1.2,0,0,1,1.58.61c0,.05,2.29,5.1,5.73,5.19,3.64.11,6.4-3.06,6.43-3.09a5.26,5.26,0,0,0,.23-6.28,1.2,1.2,0,1,1,2-1.34,7.61,7.61,0,0,1-.4,9.18C107.52,137.3,104.23,141.06,99.58,141.06Z"/><path class="cls-1" d="M110,130.14a12.82,12.82,0,0,1-6.68-2.32,1.2,1.2,0,1,1,1.37-2c1.81,1.27,4.73,2.45,7,1.6a6.76,6.76,0,0,0,4.22-5.37,9.6,9.6,0,0,0-1.35-4.15,1.2,1.2,0,1,1,2-1.28,11.59,11.59,0,0,1,1.72,5.44.56.56,0,0,1,0,.13,9.15,9.15,0,0,1-5.77,7.47A7.24,7.24,0,0,1,110,130.14Z"/><path class="cls-1" d="M128.5,138.82a6.5,6.5,0,1,1,6.5-6.5A6.51,6.51,0,0,1,128.5,138.82Zm0-11a4.5,4.5,0,1,0,4.5,4.5A4.51,4.51,0,0,0,128.5,127.82Z"/><path class="cls-1" d="M126.38,132.9a1,1,0,0,1-1-1,2.69,2.69,0,0,1,2.7-2.69,1,1,0,0,1,0,2,.7.7,0,0,0-.7.69A1,1,0,0,1,126.38,132.9Z"/></g></svg>